<?xml version="1.0" standalone="no"?>
<!DOCTYPE svg PUBLIC "-//W3C//DTD SVG 20010904//EN"
 "http://www.w3.org/TR/2001/REC-SVG-20010904/DTD/svg10.dtd">
<svg version="1.0" xmlns="http://www.w3.org/2000/svg"
 width="728.000000pt" height="410.000000pt" viewBox="0 0 728.000000 410.000000"
 preserveAspectRatio="xMidYMid meet">

<g transform="translate(0.000000,410.000000) scale(0.100000,-0.100000)"
fill="#000000" stroke="none">
<path d="M0 3904 c0 -179 1 -196 17 -190 42 16 111 27 140 21 36 -7 130 -48
154 -67 8 -7 26 -32 39 -56 21 -37 22 -45 10 -52 -8 -6 -19 -8 -25 -6 -5 1
-23 -19 -38 -47 -23 -40 -32 -48 -50 -43 -65 16 -108 18 -122 6 -12 -10 -21
-10 -41 -1 -33 15 -52 14 -70 -3 -12 -13 -14 -78 -12 -421 l3 -406 60 51 c109
93 368 265 384 256 4 -3 24 16 46 41 76 86 84 93 108 93 24 0 79 50 119 110
21 31 27 34 65 32 34 -3 44 0 53 18 8 14 18 20 30 17 12 -3 28 6 44 24 28 31
45 36 64 17 9 -9 19 -5 42 17 32 31 85 43 193 44 37 1 72 8 97 21 22 11 49 20
61 20 13 0 33 10 46 22 24 22 88 36 198 43 33 2 94 6 135 10 41 3 117 8 169
11 79 4 104 10 155 36 72 36 82 48 56 68 -29 22 -42 77 -29 117 12 36 63 73
101 73 61 0 158 -76 158 -123 0 -12 -7 -35 -15 -51 -19 -36 -19 -35 10 -46 37
-14 74 3 126 61 40 44 52 52 92 56 35 4 56 0 88 -16 32 -17 51 -21 80 -16 48
8 79 -10 79 -47 0 -46 58 -63 107 -31 37 24 242 28 331 7 34 -8 71 -12 81 -9
11 3 49 1 85 -5 54 -9 72 -8 103 5 21 9 64 18 96 21 33 2 73 12 91 21 31 17
87 20 236 14 93 -4 104 -12 97 -71 -9 -73 -24 -93 -67 -86 -123 21 -117 22
-141 -18 -24 -41 -51 -51 -116 -42 -45 6 -47 5 -90 -41 -24 -27 -42 -55 -41
-63 2 -9 23 -19 53 -25 46 -10 50 -13 57 -48 4 -20 4 -54 0 -74 -6 -31 -13
-38 -42 -46 -69 -18 -61 -51 9 -41 46 6 49 5 77 -30 28 -35 29 -35 89 -29 47
5 67 12 94 35 23 21 41 28 57 25 13 -2 24 -1 24 2 0 3 19 15 41 26 23 10 45
30 50 42 5 13 13 23 19 23 5 0 10 7 10 16 0 8 22 39 48 67 27 29 66 84 86 122
20 39 46 78 57 87 24 21 14 35 -38 57 -18 7 -35 21 -38 31 -8 26 -65 50 -118
50 -36 0 -46 4 -50 20 -4 15 2 22 29 32 37 13 43 23 19 32 -8 3 -14 9 -13 13
2 5 -15 33 -37 63 -108 149 -112 163 -70 221 13 19 36 51 50 72 14 21 36 42
48 47 13 5 -355 9 -908 9 l-930 1 -23 -35 c-25 -40 -89 -83 -141 -97 -20 -5
-45 -13 -56 -18 -11 -5 -39 -14 -61 -20 -23 -5 -56 -23 -75 -39 -52 -46 -109
-73 -124 -61 -7 6 -24 8 -38 5 -39 -10 -158 -140 -218 -239 -29 -49 -64 -95
-76 -103 -23 -15 -78 -13 -158 7 -22 5 -56 10 -76 10 -48 0 -69 25 -69 80 0
67 35 123 160 250 145 148 194 175 317 175 82 0 82 0 112 35 17 19 30 38 31
43 0 4 -276 7 -612 7 l-613 0 54 -50 c29 -28 57 -50 62 -50 4 0 13 -9 19 -19
5 -11 17 -27 26 -35 18 -18 3 -21 -27 -6 -10 6 -43 15 -71 20 -29 6 -64 13
-78 16 -14 3 -60 11 -104 16 -68 9 -83 8 -118 -8 -40 -18 -65 -20 -163 -13
l-50 4 2 35 c1 33 12 47 59 77 16 10 3 12 -68 12 l-88 1 0 -196z m3734 -649
c3 -8 12 -15 21 -15 20 0 19 -26 -1 -34 -27 -10 -32 -7 -36 29 -4 36 5 47 16
20z"/>
<path d="M4446 4061 c-42 -67 -56 -135 -55 -266 1 -74 -3 -131 -10 -150 -10
-25 -10 -31 5 -42 24 -17 69 -16 83 1 7 8 33 24 59 36 26 12 49 25 52 29 3 4
36 33 74 64 76 62 106 70 171 43 18 -8 36 -12 39 -8 3 3 6 2 6 -2 0 -4 -7 -14
-15 -22 -8 -9 -15 -30 -15 -47 1 -28 2 -30 13 -15 9 11 22 14 42 11 24 -4 27
-2 15 7 -13 10 -12 11 5 7 11 -3 52 -17 92 -31 39 -14 82 -27 95 -28 34 -2
129 31 156 55 l22 21 -22 23 c-12 13 -17 23 -12 23 5 0 1 5 -8 11 -10 5 -18
14 -18 19 0 16 98 12 161 -6 32 -9 64 -14 72 -11 7 3 25 36 40 75 41 104 118
173 196 175 52 2 241 -33 276 -51 17 -8 49 -31 73 -50 l43 -35 79 6 c84 7 176
-5 221 -29 26 -13 27 -12 40 18 7 17 23 41 35 53 13 13 39 53 58 89 l35 66
-1039 0 -1040 0 -24 -39z"/>
<path d="M6890 4096 c0 -2 20 -28 45 -57 25 -29 45 -59 45 -66 0 -14 -2 -14
-105 13 -44 11 -54 11 -84 -5 -51 -26 -58 -42 -42 -98 8 -26 15 -61 17 -78 4
-48 22 -84 48 -96 34 -16 39 -35 15 -58 -17 -15 -19 -24 -12 -52 7 -27 15 -35
37 -37 28 -4 86 -55 86 -77 0 -17 -25 -37 -35 -27 -4 4 -6 -2 -3 -13 2 -13 17
-24 46 -33 46 -15 50 -22 26 -47 -13 -13 -14 -16 -3 -15 8 1 19 2 25 1 16 -2
74 -56 74 -70 0 -7 -10 -3 -22 9 -12 11 -31 20 -42 21 -12 0 -15 3 -8 6 21 8
3 23 -29 23 -16 0 -29 5 -29 10 0 15 -49 -22 -50 -37 0 -6 -10 -13 -22 -15
-20 -4 -18 -6 12 -14 36 -11 62 2 37 18 -6 4 -8 11 -3 15 5 4 11 2 13 -5 3 -6
9 -10 14 -6 5 3 9 0 9 -5 0 -6 -4 -11 -9 -11 -5 0 -7 -9 -4 -20 3 -11 9 -20
14 -20 5 0 9 -6 9 -12 0 -7 16 -23 35 -36 32 -20 34 -21 23 -3 -6 11 -21 23
-33 26 -13 4 -16 8 -7 12 7 3 21 -1 30 -9 30 -26 42 -30 36 -13 -5 12 -1 14
17 12 15 -3 25 -12 27 -25 2 -11 10 -26 18 -32 8 -7 14 -18 14 -24 0 -7 12
-17 28 -23 l27 -11 -27 -1 c-16 -1 -28 -5 -28 -11 0 -12 35 -31 44 -23 3 3 6
1 6 -5 0 -6 10 -12 22 -14 22 -3 40 -38 19 -38 -5 0 -12 8 -14 18 -4 14 -5 13
-6 -3 -2 -39 19 -46 55 -18 l34 25 0 259 c0 236 -4 282 -24 250 -3 -5 -31 -23
-61 -40 -63 -36 -89 -33 -83 10 5 33 -10 37 -70 20 -36 -11 -82 0 -82 19 0 6
20 31 45 56 l45 45 -26 9 c-14 6 -34 10 -45 10 -12 0 -19 5 -16 13 7 21 54 10
109 -26 94 -61 122 -74 166 -81 l43 -6 -2 260 -1 260 -194 0 c-107 0 -194 -2
-194 -4z m268 -99 c4 -20 -25 -34 -40 -19 -15 15 -1 44 19 40 10 -2 19 -11 21
-21z m-33 -57 c3 -5 1 -10 -4 -10 -6 0 -11 5 -11 10 0 6 2 10 4 10 3 0 8 -4
11 -10z m-55 -10 c0 -5 7 -10 15 -10 17 0 19 -9 6 -29 -7 -10 -13 -11 -30 -2
-24 13 -29 51 -6 51 8 0 15 -4 15 -10z m30 -490 c0 -21 -15 -27 -25 -10 -7 12
2 30 16 30 5 0 9 -9 9 -20z m-34 -57 c-10 -10 -19 5 -10 18 6 11 8 11 12 0 2
-7 1 -15 -2 -18z"/>
<path d="M6542 3818 c-12 -24 -24 -60 -27 -80 -4 -21 -13 -42 -19 -47 -19 -16
-79 5 -133 47 -95 74 -109 74 -245 5 -82 -42 -89 -48 -100 -86 -6 -23 -12 -46
-12 -50 -1 -5 -10 -15 -20 -23 -18 -13 -17 -14 21 -14 58 0 63 -17 8 -25 -42
-7 -58 -19 -36 -27 5 -1 7 -17 3 -35 -8 -35 -104 -143 -129 -143 -19 0 -74
-45 -66 -54 4 -3 15 -6 26 -6 13 0 17 -5 13 -15 -3 -8 -2 -14 2 -14 27 4 52
-3 52 -15 0 -8 5 -18 12 -22 8 -5 9 -2 5 10 -5 11 3 26 22 45 17 16 27 32 24
35 -4 3 -2 6 3 6 5 0 10 9 10 20 0 11 -5 20 -10 20 -6 0 -4 6 4 14 22 21 96 7
92 -17 -2 -15 1 -15 25 -6 15 6 41 13 58 15 31 4 71 39 76 68 5 24 75 48 121
41 33 -4 40 -2 55 22 40 66 52 73 120 73 36 0 72 4 82 10 19 10 91 -6 102 -23
4 -6 20 -6 35 -2 28 7 29 7 7 17 -28 13 -32 39 -16 108 19 84 17 100 -12 100
-13 0 -30 7 -37 16 -28 34 -73 74 -84 74 -7 0 -21 -19 -32 -42z m-622 -488 c8
-5 11 -12 8 -16 -4 -3 -14 1 -23 10 -18 17 -9 21 15 6z"/>
<path d="M5829 3613 c-37 -92 -86 -183 -99 -184 -8 -1 1 -5 20 -9 28 -7 37 -5
48 11 7 10 17 19 22 19 16 0 50 34 50 49 0 8 10 25 22 38 18 19 20 26 9 32 -7
5 -11 13 -8 18 8 13 -21 53 -39 53 -8 0 -19 -12 -25 -27z"/>
<path d="M4575 3615 c-45 -24 -53 -35 -32 -46 9 -6 17 -19 17 -30 0 -11 5 -17
10 -14 18 11 42 -16 36 -40 -4 -15 3 -29 22 -47 26 -24 167 -98 187 -98 6 0
18 13 28 29 17 29 17 30 -5 45 -12 9 -31 16 -41 16 -24 0 -84 26 -103 45 -9 8
-24 15 -35 15 -10 0 -19 7 -19 15 0 8 -7 15 -16 15 -13 0 -9 7 13 29 36 34 49
71 25 71 -10 0 -26 3 -37 5 -11 3 -33 -2 -50 -10z"/>
<path d="M5593 3585 c-18 -13 -23 -26 -23 -59 0 -96 -30 -146 -101 -172 -19
-7 -27 -13 -18 -13 9 -1 22 -7 28 -15 21 -25 91 -9 128 29 18 18 36 35 41 37
5 1 6 48 3 103 -6 108 -15 120 -58 90z"/>
<path d="M2165 3531 c-8 -14 13 -51 29 -51 19 0 41 29 30 39 -16 15 -52 22
-59 12z"/>
<path d="M6606 3494 c-9 -23 -8 -24 17 -24 14 0 24 6 24 15 0 8 -4 12 -9 9 -4
-3 -8 0 -8 5 0 17 -17 13 -24 -5z"/>
<path d="M6775 3463 c-31 -5 -45 -18 -45 -43 0 -13 1 -13 10 0 9 13 11 13 19
1 5 -8 7 -20 4 -27 -3 -8 2 -11 16 -7 11 3 33 -1 49 -9 17 -9 36 -12 48 -7 16
7 17 8 2 8 -10 1 -18 5 -18 11 0 5 14 7 33 4 29 -5 30 -4 15 9 -10 8 -18 20
-18 28 0 11 -2 11 -8 2 -6 -10 -12 -10 -28 2 -16 13 -17 16 -4 25 12 7 8 9
-15 8 -16 0 -43 -3 -60 -5z"/>
<path d="M2225 3451 c-28 -12 -58 -48 -50 -60 3 -6 25 -11 49 -11 51 0 107
-18 122 -38 14 -19 34 -7 34 18 0 40 -21 66 -63 77 -23 7 -49 14 -57 17 -8 2
-24 1 -35 -3z"/>
<path d="M5280 3450 c0 -5 -6 -10 -14 -10 -8 0 -17 -4 -20 -9 -4 -5 3 -7 14
-4 11 3 20 0 20 -6 0 -6 -7 -11 -16 -11 -13 0 -15 -6 -9 -27 3 -16 11 -30 16
-32 6 -2 1 -10 -11 -18 -12 -8 -19 -21 -16 -29 3 -7 1 -16 -4 -19 -5 -3 -7
-12 -4 -20 4 -8 -1 -18 -10 -21 -11 -4 -14 -13 -11 -24 5 -15 2 -17 -14 -13
-21 5 -141 -44 -141 -59 0 -4 -12 -8 -26 -8 -23 0 -24 -1 -10 -16 33 -32 10
-57 -64 -70 -14 -3 -34 -7 -45 -11 -19 -6 -18 -6 3 -14 25 -9 69 -3 89 13 7 6
19 8 27 5 8 -3 17 -1 20 6 2 7 5 4 5 -5 1 -13 9 -18 31 -18 17 0 30 5 30 10 0
9 -23 15 -45 10 -5 -1 -5 4 2 11 9 9 22 9 57 0 62 -15 124 -15 108 1 -15 15
-16 29 -1 26 6 -2 14 3 16 10 3 6 -2 12 -10 12 -20 0 -28 25 -14 39 16 16 32
14 18 -3 -17 -20 -1 -27 50 -21 l44 5 -34 -12 c-44 -16 -60 -41 -42 -62 11
-12 17 -14 27 -5 11 9 14 6 14 -15 0 -14 5 -26 12 -26 6 0 8 -3 5 -7 -4 -3
-15 1 -25 10 -10 10 -22 14 -25 10 -4 -3 -7 -2 -7 4 0 5 -24 10 -52 11 -29 0
-47 -1 -40 -4 6 -3 10 -10 6 -15 -3 -5 6 -9 19 -9 20 0 26 -6 31 -35 5 -22 17
-42 38 -56 l31 -22 -23 -9 c-22 -8 -22 -9 -5 -22 11 -8 16 -20 12 -29 -4 -11
-2 -14 9 -10 10 4 12 0 8 -11 -3 -9 -11 -13 -18 -9 -6 4 -4 -4 5 -17 16 -24
145 -88 182 -89 32 -2 18 27 -34 68 -29 23 -56 41 -60 41 -5 0 -9 5 -9 11 0 6
-7 17 -15 25 -12 12 -15 12 -15 2 -1 -8 -6 -6 -15 6 -8 10 -12 22 -10 27 9 13
44 -3 60 -27 8 -13 20 -24 26 -24 6 0 25 -11 43 -25 37 -28 80 -32 102 -10 14
13 13 15 -6 15 -33 0 -36 28 -6 55 15 14 24 29 21 35 -12 20 19 50 52 50 31 0
49 -19 21 -21 -7 -1 -2 -4 12 -8 14 -4 26 -16 28 -26 2 -11 8 -32 13 -47 10
-24 14 -25 42 -17 58 16 60 9 6 -19 -49 -26 -54 -32 -53 -60 2 -34 -4 -39 -25
-19 -11 10 -13 8 -8 -13 3 -14 9 -47 12 -75 4 -27 14 -61 22 -73 18 -29 13
-36 -18 -23 -13 5 -44 15 -69 22 -25 7 -62 22 -83 32 -37 19 -67 18 -67 -3 0
-6 11 -16 25 -22 14 -6 25 -14 25 -18 0 -4 8 -10 18 -12 13 -4 19 -15 20 -36
0 -26 -6 -35 -36 -54 -20 -12 -41 -27 -45 -32 -5 -6 -5 4 -1 23 5 29 4 33 -11
28 -9 -4 -21 -7 -26 -7 -6 0 -8 -4 -4 -9 7 -12 -15 -61 -27 -61 -16 0 -30 54
-24 93 6 34 4 37 -18 37 -13 0 -29 -6 -35 -14 -15 -18 -61 -30 -73 -18 -14 14
38 102 60 102 9 0 11 7 7 21 -6 17 -3 20 16 17 36 -5 32 15 -8 42 -21 14 -52
40 -71 58 -39 37 -47 40 -33 13 8 -14 7 -20 -5 -25 -9 -3 -14 -1 -13 7 2 6 -3
24 -11 39 -13 27 -32 30 -73 13 -25 -11 -71 3 -60 18 5 7 8 18 7 25 -1 6 -2
21 -3 32 -1 13 -8 20 -23 20 -12 0 -18 3 -15 7 4 3 2 12 -4 20 -6 7 -8 13 -3
14 5 1 -2 4 -16 8 -16 5 -25 14 -25 27 0 27 -23 54 -45 54 -9 0 -23 -11 -30
-25 -11 -21 -15 -23 -22 -10 -14 25 -64 45 -111 45 -56 0 -73 -17 -55 -55 14
-30 0 -46 -32 -38 -12 3 -23 -3 -32 -17 -7 -12 -57 -44 -110 -71 -58 -29 -98
-55 -98 -64 0 -8 -6 -15 -14 -15 -19 0 -25 -21 -12 -42 7 -11 6 -24 -1 -41
-11 -23 -9 -25 15 -31 15 -3 79 -16 142 -30 139 -29 150 -33 150 -56 0 -10 14
-28 30 -40 l30 -22 18 22 c17 21 19 21 55 7 34 -15 37 -19 37 -57 0 -30 6 -45
25 -62 30 -26 31 -35 4 -43 -21 -7 -21 -7 2 -31 20 -21 21 -28 11 -42 -7 -9
-15 -25 -19 -35 -7 -21 -43 -19 -70 5 -10 8 -30 18 -45 22 -14 3 -33 8 -41 12
-10 4 -16 -5 -21 -33 -15 -91 -24 -109 -67 -126 -47 -19 -68 -14 -66 16 0 12
0 36 -1 54 l-2 32 -67 -2 c-38 -1 -74 -6 -80 -10 -19 -12 -16 -37 4 -37 12 0
14 -3 6 -11 -17 -17 -57 -7 -61 16 -7 42 -11 48 -27 35 -10 -9 -23 -9 -43 -2
-16 5 -40 8 -53 5 -20 -4 -28 1 -38 23 -11 24 -10 30 5 41 24 17 11 28 -15 11
-14 -9 -20 -21 -18 -43 2 -28 0 -30 -32 -31 -26 0 -36 -6 -42 -22 -9 -25 -19
-28 -36 -11 -14 14 -47 4 -38 -11 3 -6 0 -13 -8 -16 -9 -3 -18 -16 -21 -29 -4
-15 -11 -22 -20 -19 -7 3 -35 -6 -62 -20 l-49 -25 -12 22 c-7 13 -9 41 -6 68
3 26 2 49 -3 52 -5 3 -38 7 -73 9 -63 3 -64 2 -72 -24 -8 -29 7 -40 17 -13 6
14 64 22 64 9 0 -13 -55 -49 -75 -49 -12 0 -20 -7 -20 -17 0 -9 -4 -20 -8 -24
-4 -4 -6 25 -4 64 1 40 5 72 10 72 4 0 7 35 8 78 1 54 3 69 9 52 8 -24 8 -24
8 5 0 17 -3 39 -7 49 -6 17 -9 16 -19 -10 -18 -47 -33 -152 -27 -187 10 -52
-10 -109 -47 -132 -58 -36 -47 -47 57 -59 17 -2 57 -13 90 -25 32 -11 67 -21
77 -21 10 0 18 -4 18 -10 0 -5 -5 -10 -11 -10 -16 0 -78 -53 -73 -62 3 -5 21
5 40 22 20 17 46 30 61 30 26 0 26 -1 7 -15 -10 -8 -26 -15 -34 -15 -31 0 -61
-30 -54 -53 6 -19 4 -18 -26 7 -21 17 -42 26 -59 24 -14 -1 -32 1 -39 6 -8 5
-20 2 -31 -8 -10 -9 -22 -16 -28 -16 -6 0 -16 -6 -22 -14 -10 -11 -8 -16 8
-21 17 -5 20 -12 15 -33 -4 -15 -9 -31 -13 -37 -3 -5 -4 -23 -3 -40 1 -23 0
-25 -6 -11 -8 17 -9 17 -24 -6 -13 -20 -14 -28 -5 -39 7 -7 2 -5 -10 5 -29 24
-29 27 6 51 16 10 27 23 25 27 -3 4 0 17 6 28 9 16 7 24 -9 41 -16 17 -18 26
-10 46 5 14 7 34 4 44 -4 13 -1 19 8 19 8 0 20 6 26 14 9 11 8 15 -6 21 -10 5
-25 7 -33 6 -8 0 -26 15 -39 34 -13 19 -28 32 -33 29 -5 -3 -17 1 -26 9 -14
12 -27 13 -72 5 -87 -16 -85 -15 -55 -50 17 -20 25 -39 21 -51 -3 -12 2 -25
12 -33 14 -10 14 -12 -6 -10 -12 0 -22 -2 -22 -6 -1 -46 0 -48 25 -42 19 5 25
2 25 -10 0 -9 7 -16 16 -16 8 0 12 5 9 10 -3 6 1 10 10 10 12 0 15 -6 10 -20
-5 -16 -3 -19 10 -14 11 5 16 2 14 -7 -5 -23 11 -59 27 -59 13 0 16 -4 18 -32
1 -7 -14 -13 -34 -14 -52 -3 -53 -3 -46 -19 4 -12 2 -13 -12 -7 -20 11 -45 4
-36 -9 3 -5 16 -9 29 -9 13 0 27 -5 30 -10 3 -5 19 -10 34 -10 15 0 36 -7 47
-15 21 -18 28 -18 -78 0 -27 4 -39 2 -45 -10 -14 -25 -64 -34 -90 -17 -13 8
-23 10 -23 6 0 -8 36 -36 50 -39 40 -10 67 -20 73 -29 5 -7 7 -2 4 11 -3 15 1
23 15 26 16 4 17 3 7 -9 -9 -11 -8 -14 5 -14 23 0 56 -31 56 -53 0 -9 8 -21
18 -24 9 -4 19 -9 22 -13 3 -3 34 -17 70 -30 36 -13 66 -24 68 -25 2 -2 -7
-19 -19 -39 -12 -20 -20 -38 -18 -39 59 -41 88 -48 65 -15 -23 32 -19 47 5 19
26 -31 32 -23 21 27 -7 27 -6 44 1 51 8 8 5 11 -11 11 -12 0 -22 5 -22 10 0 6
5 10 10 10 6 0 10 9 10 20 0 11 -4 20 -10 20 -19 0 -10 23 20 50 20 18 28 33
25 48 -2 15 0 19 11 15 8 -3 14 -13 14 -22 1 -14 2 -14 11 2 10 18 11 18 25 0
14 -17 15 -17 13 2 -3 28 11 55 27 55 27 0 14 16 -15 18 -21 2 -31 -3 -34 -15
-3 -13 -5 -11 -6 6 0 13 6 29 15 36 14 10 14 15 3 33 -12 19 -11 24 9 43 13
11 26 18 29 15 3 -3 14 -1 24 5 24 12 24 8 0 -19 -19 -23 -37 -30 -25 -10 4 7
3 8 -4 4 -20 -12 -13 -26 14 -26 21 0 24 -4 19 -20 -8 -27 7 -25 32 3 51 57
116 96 128 77 3 -5 -5 -12 -19 -16 -13 -3 -32 -14 -42 -25 -15 -17 -13 -17 27
3 24 11 46 25 47 29 2 5 8 7 13 3 5 -3 9 2 9 10 0 11 -10 16 -32 16 -31 1 -32
1 -14 15 15 11 16 15 5 16 -29 3 -34 4 -37 14 -2 6 -11 18 -19 28 -24 26 -7
33 25 10 15 -11 42 -28 60 -37 18 -9 30 -21 27 -26 -4 -6 7 -10 23 -10 16 0
43 -7 58 -15 16 -8 37 -15 46 -15 12 0 15 -5 11 -16 -4 -11 -8 -12 -13 -4 -4
7 -12 10 -17 7 -9 -6 -9 -70 1 -86 4 -5 2 -12 -4 -16 -5 -3 -10 -11 -10 -16 0
-5 12 -2 28 8 l27 17 -27 -30 c-25 -27 -26 -30 -10 -40 19 -11 143 -11 161 0
6 4 11 16 11 27 0 11 6 22 14 25 11 4 11 13 -1 55 -8 28 -12 53 -9 56 3 4 41
9 83 13 58 5 88 3 116 -8 33 -13 40 -12 61 2 18 11 47 15 108 15 46 -1 103 4
127 12 38 11 44 11 53 -4 6 -12 22 -17 49 -17 24 0 38 -4 34 -10 -10 -16 11
-12 25 5 14 17 35 21 25 5 -9 -14 16 -12 64 5 23 8 47 12 55 9 12 -5 21 11 40
68 3 12 14 17 31 16 18 -2 24 -7 20 -18 -4 -8 -9 -28 -12 -43 l-6 -28 42 17
c27 11 52 14 74 9 17 -3 66 -8 107 -9 41 -1 99 -7 129 -13 72 -14 156 3 271
56 21 10 17 11 -29 7 l-54 -5 39 19 c21 11 44 20 51 20 7 0 22 6 33 13 17 10
22 9 29 -1 5 -8 34 -16 67 -19 70 -6 325 22 357 39 12 6 60 15 107 19 47 4
104 11 128 15 29 4 42 3 42 -5 0 -6 -6 -11 -14 -11 -8 0 -18 -4 -21 -10 -4 -6
5 -7 23 -4 22 5 34 1 50 -16 20 -22 125 -55 142 -45 6 3 10 -1 10 -9 0 -11 10
-16 31 -16 19 0 38 -8 51 -22 13 -16 21 -19 24 -10 3 6 13 12 21 12 9 0 13 -6
9 -15 -3 -8 -9 -22 -12 -30 -3 -8 -2 -15 4 -15 6 0 18 -3 27 -6 13 -5 15 -2 9
20 -4 19 -2 26 9 26 16 0 32 -45 21 -62 -12 -19 -15 -70 -3 -63 5 4 7 16 3 28
-6 19 -5 20 10 5 9 -9 16 -30 16 -46 0 -17 4 -32 10 -34 21 -7 27 -192 9 -288
-14 -73 -77 -233 -98 -250 -3 -3 -19 -25 -36 -50 -88 -134 -189 -242 -270
-290 -22 -13 -46 -30 -53 -37 -7 -7 -22 -13 -32 -13 -10 0 -21 -4 -24 -8 -3
-5 -19 -7 -36 -4 -25 4 -29 1 -24 -12 9 -24 -43 -76 -75 -76 l-26 1 33 27 c18
15 32 30 32 33 0 14 -33 19 -46 8 -12 -9 -14 -7 -12 12 2 15 -2 23 -9 21 -25
-4 -12 9 17 19 35 13 42 40 8 32 -20 -4 -18 0 12 27 19 17 47 34 63 37 15 3
27 7 27 9 0 3 -11 22 -24 43 -26 41 -18 38 -156 54 -43 5 -69 24 -63 47 4 15
11 19 24 15 11 -4 19 -2 19 3 0 16 -51 56 -73 58 -25 2 -42 8 -107 38 -28 12
-64 20 -93 19 -45 -1 -49 1 -59 28 -6 17 -19 31 -33 35 -13 3 -31 17 -40 30
-22 34 -72 34 -81 -1 -8 -31 -21 -31 -63 -1 -34 25 -63 25 -93 -1 -18 -16 -38
-10 -38 12 0 23 -28 6 -32 -18 -2 -14 -11 -23 -25 -25 -28 -4 -32 -16 -25 -80
5 -55 14 -62 45 -35 18 17 19 17 33 -2 8 -10 12 -27 8 -37 -4 -12 0 -18 11
-18 9 0 13 -5 10 -10 -4 -6 -16 -8 -27 -4 -12 3 -39 6 -62 6 -22 -1 -45 3 -51
7 -5 5 -21 5 -34 0 -20 -8 -22 -14 -18 -39 4 -19 1 -34 -9 -45 -16 -16 -44
-21 -44 -7 0 4 -18 13 -39 18 -38 10 -39 10 -45 -16 -10 -51 -57 -47 -70 5 -8
32 -60 59 -99 51 -17 -3 -52 -20 -78 -37 -33 -21 -55 -28 -69 -24 -31 10 -26
47 10 68 17 10 30 22 30 28 0 10 -50 12 -75 3 -21 -8 -48 -61 -51 -99 -9 -101
-17 -127 -41 -138 -17 -8 -27 -7 -35 1 -7 7 -26 12 -44 12 -28 0 -32 -4 -36
-31 -5 -32 12 -49 51 -49 24 0 34 -14 26 -39 -4 -12 -23 -22 -63 -31 -31 -7
-63 -17 -70 -23 -15 -12 -20 -8 -25 24 -4 25 -27 35 -55 24 -23 -10 -117 -10
-172 -2 -45 8 -46 7 -63 -28 -13 -28 -22 -36 -40 -33 -18 2 -23 10 -25 41 -2
20 1 37 6 37 5 0 20 9 33 21 27 24 28 75 1 96 -19 15 -84 13 -89 -2 -2 -5 8
-23 22 -39 17 -20 23 -36 19 -50 -8 -28 -12 -31 -62 -45 -34 -10 -100 -46
-120 -66 -2 -2 -6 -23 -8 -47 -6 -53 -16 -63 -43 -49 -25 14 -35 50 -28 98 11
64 -31 105 -84 83 -33 -14 -37 -28 -11 -37 9 -3 25 -14 35 -25 14 -14 15 -22
7 -38 -14 -27 -31 -25 -65 6 -20 18 -34 24 -49 19 -11 -4 -41 -10 -66 -12 -24
-3 -55 -13 -69 -22 -17 -11 -44 -15 -90 -14 -74 2 -169 -19 -219 -48 -18 -10
-39 -19 -46 -19 -8 0 -20 -7 -27 -16 -10 -12 -24 -15 -59 -11 -33 4 -50 1 -64
-11 -12 -12 -40 -18 -90 -20 -131 -5 -121 -1 -118 -54 3 -43 1 -49 -22 -59
-18 -9 -33 -9 -48 -2 -13 6 -32 7 -43 2 -11 -4 -37 -8 -58 -8 -20 -1 -46 -6
-56 -13 -29 -18 -51 4 -44 46 4 28 -1 39 -36 78 -26 29 -54 48 -74 52 -17 3
-40 15 -52 25 -26 24 -134 35 -142 14 -8 -19 17 -103 31 -103 20 0 58 -49 52
-66 -12 -31 -50 -11 -78 41 -15 28 -28 46 -29 40 -1 -5 -2 -17 -3 -25 -1 -12
-17 -15 -78 -16 l-78 -1 0 27 c0 31 13 44 50 53 18 4 30 17 39 42 15 43 5 60
-39 70 -40 9 -65 -1 -78 -30 -10 -21 -19 -25 -51 -25 -44 0 -61 18 -61 63 0
16 -12 34 -35 51 -30 23 -37 25 -55 14 -12 -7 -28 -28 -37 -46 -15 -31 -19
-33 -50 -27 -29 5 -38 2 -62 -24 -18 -19 -39 -31 -54 -31 -14 0 -37 -4 -51
-10 -23 -9 -31 -5 -70 35 -47 48 -65 54 -91 28 -13 -13 -15 -27 -10 -73 7 -63
1 -73 -52 -83 -26 -5 -35 -2 -48 16 -8 12 -15 31 -15 42 0 18 -2 17 -13 -5
-11 -22 -19 -25 -60 -23 -26 1 -66 10 -90 20 -68 31 -116 45 -135 39 -13 -4
-25 3 -40 24 -28 38 -28 49 6 107 16 27 31 69 34 95 3 25 15 59 26 75 11 16
22 42 24 58 2 24 7 30 24 28 29 -3 137 40 160 63 11 11 31 26 44 35 14 9 22
20 18 24 -11 12 -62 9 -66 -4 -7 -22 -19 -11 -15 13 3 16 -3 37 -17 56 -18 25
-27 30 -46 26 -17 -5 -26 -2 -30 9 -4 8 -13 15 -22 15 -9 0 -36 7 -59 16 -42
16 -44 16 -58 -2 -13 -16 -16 -17 -25 -4 -16 24 -11 47 11 53 15 4 20 12 17
28 -2 18 -12 25 -42 31 -25 5 -43 5 -50 -2 -5 -5 -18 -10 -29 -10 -28 0 -12
-17 23 -23 27 -6 30 -10 30 -46 0 -35 22 -71 39 -63 3 2 9 -10 12 -26 10 -48
43 -111 59 -112 8 -1 3 -7 -12 -16 -15 -8 -34 -27 -43 -43 -11 -21 -24 -30
-52 -35 -21 -4 -53 -9 -71 -12 -21 -4 -51 -25 -87 -61 l-54 -55 20 -27 c30
-41 22 -75 -17 -79 -24 -2 -37 3 -56 26 -37 45 -58 52 -109 41 -39 -9 -50 -7
-102 18 -57 28 -58 29 -53 63 3 19 6 43 6 53 0 10 8 17 20 17 11 0 20 6 21 13
4 69 14 108 36 140 29 42 54 45 63 8 3 -14 26 -39 54 -58 49 -33 80 -41 91
-23 10 16 43 12 62 -9 30 -31 72 -35 99 -10 13 12 24 27 24 33 0 6 16 27 36
47 l35 36 -26 17 c-26 17 -27 17 -32 -3 -6 -22 -37 -29 -49 -10 -3 6 -9 7 -13
2 -3 -5 -19 -16 -34 -26 -29 -18 -47 -16 -47 7 0 16 -43 46 -65 46 -8 0 -15
-5 -15 -11 0 -8 -5 -7 -15 1 -14 11 -13 14 5 27 16 11 18 18 10 33 -16 30 -12
50 10 50 13 0 20 7 20 20 0 32 -28 36 -51 6 -11 -14 -29 -26 -39 -26 -10 0
-21 -9 -25 -19 -10 -33 -65 -35 -65 -2 0 26 -9 31 -36 19 -13 -6 -24 -20 -24
-30 0 -11 -11 -23 -27 -29 -15 -6 -30 -15 -33 -20 -4 -6 -26 -6 -58 1 -29 5
-59 7 -67 4 -17 -7 -19 0 -6 24 6 12 4 24 -8 39 -17 20 -20 21 -47 7 -38 -20
-44 -31 -44 -81 0 -41 -1 -43 -31 -43 -24 0 -30 -4 -25 -15 3 -8 9 -21 12 -29
3 -7 -2 -16 -11 -20 -18 -7 -74 31 -74 51 -1 6 -14 26 -30 44 -25 26 -28 36
-20 56 8 20 6 26 -10 30 -28 7 -48 76 -33 116 6 18 9 42 6 55 -6 19 -3 22 24
22 21 0 35 7 42 20 6 12 21 20 35 20 26 0 31 14 26 68 -1 13 4 31 11 39 10 13
9 15 -7 11 -15 -3 -19 -11 -17 -31 2 -21 -2 -28 -23 -33 -14 -3 -32 -3 -42 0
-9 4 -19 2 -23 -4 -5 -7 -15 -8 -32 -1 -22 8 -27 7 -32 -12 -11 -42 -7 -70 9
-63 9 3 15 0 15 -9 0 -8 -5 -15 -11 -15 -6 0 -9 -7 -5 -15 3 -9 -3 -19 -15
-26 -17 -8 -18 -13 -8 -25 14 -17 5 -28 -27 -38 -17 -5 -23 -2 -27 15 -6 21
-7 21 -31 6 -15 -10 -27 -13 -31 -7 -8 14 3 30 21 30 8 0 14 9 14 19 0 18 -2
19 -30 5 -26 -13 -30 -21 -30 -54 0 -21 4 -40 8 -42 5 -1 25 -25 46 -52 33
-44 35 -50 20 -60 -19 -14 -11 -56 10 -56 7 0 33 -20 58 -44 25 -24 55 -47 67
-51 11 -3 21 -10 21 -15 0 -5 9 -12 20 -15 11 -3 20 -11 20 -17 0 -13 59 -68
72 -68 14 0 142 -81 150 -94 4 -7 36 -26 70 -41 35 -15 81 -40 103 -55 66 -44
416 -210 475 -225 28 -7 128 -49 175 -73 17 -9 37 -19 45 -23 8 -4 44 -17 80
-28 36 -11 90 -29 120 -40 30 -10 86 -27 123 -37 51 -12 81 -27 114 -55 24
-22 48 -39 53 -39 5 0 16 -7 24 -16 9 -8 24 -16 34 -17 14 -1 17 -7 14 -25 -5
-23 -7 -24 -56 -18 -28 4 -91 10 -141 15 -49 4 -100 13 -112 19 -13 7 -57 12
-105 11 -54 -1 -100 4 -131 15 -26 9 -53 16 -60 16 -7 0 -32 18 -56 40 -45 42
-57 46 -109 31 -28 -8 -38 -6 -69 15 -20 13 -46 24 -58 24 -12 0 -33 8 -46 19
-39 30 -81 48 -127 54 -24 3 -54 14 -65 25 -27 24 -85 52 -107 52 -25 0 -129
35 -175 59 -21 12 -49 21 -60 21 -33 0 -103 38 -121 65 -9 14 -22 25 -29 25
-6 0 -20 9 -31 21 -16 18 -19 18 -24 4 -4 -12 -19 1 -60 50 -48 58 -57 65 -81
60 -21 -5 -29 -2 -33 13 -4 10 -20 34 -36 52 l-30 34 0 -150 0 -149 32 -20
c74 -46 135 -75 160 -75 14 0 40 -11 56 -25 17 -14 36 -25 43 -25 7 0 9 -3 6
-7 -4 -3 10 -14 31 -24 38 -19 73 -40 82 -49 5 -6 51 -27 60 -28 3 0 30 -10
60 -22 94 -38 303 -107 390 -130 82 -22 246 -72 262 -81 25 -13 991 -12 983 1
-3 6 -34 10 -68 10 -59 0 -63 2 -80 31 -17 31 -17 32 3 51 14 13 27 17 38 12
9 -4 37 -8 63 -10 47 -2 129 -35 150 -60 10 -12 8 -16 -9 -21 -12 -3 -22 -9
-22 -14 0 -5 986 -9 2325 -9 2207 0 2325 1 2326 18 1 9 1 21 0 26 -1 5 3 22 8
37 5 16 6 29 2 29 -4 0 -7 15 -6 33 1 17 0 34 -4 37 -3 3 -14 15 -25 27 -18
22 -18 22 7 34 15 7 24 16 21 20 -2 4 5 13 16 19 49 26 65 53 66 110 1 83 2
88 23 95 11 3 36 19 57 36 21 16 47 28 58 27 15 -2 20 2 18 15 -2 13 4 17 24
17 15 0 24 3 21 7 -15 14 18 33 59 33 l44 0 0 886 c0 877 0 886 -20 891 -21 6
-28 49 -12 68 31 35 44 198 17 209 -8 3 -15 13 -15 22 0 13 3 14 15 4 8 -7 15
-8 15 -2 0 5 -7 15 -15 22 -12 10 -15 10 -15 -1 -1 -8 -12 0 -25 16 -14 17
-25 26 -25 21 0 -5 -7 -3 -15 4 -13 11 -15 8 -15 -18 0 -17 7 -37 15 -46 8 -8
15 -19 15 -25 0 -6 9 -11 19 -11 10 0 22 -7 25 -16 8 -21 8 -24 -3 -24 -16 0
-56 43 -70 75 -8 17 -16 25 -18 18 -3 -8 -10 -7 -23 4 -10 9 -17 20 -14 25 3
4 -3 8 -12 8 -13 0 -15 3 -8 10 14 14 42 3 47 -18 4 -13 5 -11 6 4 0 12 -5 27
-13 33 -8 7 -17 23 -20 37 -5 19 -11 24 -25 19 -10 -3 -24 1 -30 9 -15 18 -41
10 -41 -13 1 -14 3 -13 15 3 13 17 15 17 21 3 7 -20 -2 -36 -30 -47 -18 -8
-16 -9 14 -10 l35 -2 -27 -10 c-16 -5 -28 -16 -28 -23 0 -18 -21 -24 -44 -13
-10 6 -36 7 -57 4 -24 -4 -39 -2 -39 4 0 5 -4 10 -10 10 -5 0 -9 -6 -7 -12 1
-9 -16 -13 -60 -13 -43 0 -64 -4 -68 -13 -7 -19 13 -52 30 -52 8 0 15 -7 15
-15 0 -8 9 -19 20 -25 11 -6 18 -15 15 -20 -7 -11 -64 -2 -83 13 -9 7 -18 4
-32 -8 -22 -20 -27 -6 -9 27 16 30 2 34 -26 8 -22 -21 -29 -22 -46 -12 -47 30
-53 -25 -7 -67 l32 -28 -11 -59 c-13 -66 1 -104 37 -104 21 0 23 -7 20 -52 -1
-16 8 -40 19 -54 12 -15 21 -40 21 -55 0 -31 14 -39 24 -14 5 13 10 14 27 5
15 -9 18 -15 10 -23 -6 -6 -11 -28 -11 -49 0 -41 -5 -44 -47 -26 -15 6 -57 15
-93 18 -36 4 -76 11 -90 14 -14 4 -72 11 -130 17 -57 5 -107 14 -110 19 -3 5
-31 11 -62 14 -62 4 -82 12 -72 28 5 8 1 9 -10 5 -12 -5 -19 0 -26 17 -5 13
-15 26 -22 28 -11 4 -10 8 1 21 12 15 11 17 -2 17 -9 0 -21 9 -27 21 -10 18
-6 25 34 60 31 27 46 49 46 65 0 26 -10 30 -28 12 -9 -9 -15 -9 -24 0 -9 9 -7
16 7 32 14 15 16 23 7 32 -9 9 -24 1 -61 -30 -27 -23 -57 -42 -66 -42 -9 0
-33 -8 -53 -17 l-35 -17 34 -11 c33 -11 33 -12 12 -23 -12 -7 -53 -12 -91 -12
-60 0 -71 3 -92 25 -13 14 -28 25 -34 25 -25 0 -99 -45 -108 -66 -14 -30 -39
-38 -92 -30 -29 5 -47 2 -61 -8 -20 -14 -19 -15 7 -25 41 -15 40 -25 -5 -45
-23 -10 -48 -21 -56 -25 -7 -4 -28 -41 -45 -84 -18 -42 -35 -80 -39 -83 -4 -4
-7 -13 -7 -21 0 -24 -42 -103 -55 -103 -31 0 -26 65 5 75 10 3 23 20 29 37 6
18 17 39 25 47 7 9 23 43 35 75 23 62 19 75 -21 76 -9 0 -20 5 -23 10 -14 23
-44 10 -54 -22 l-9 -33 -1 33 c-1 23 -6 32 -18 32 -9 0 -31 15 -49 33 -44 45
-89 77 -108 77 -8 0 -22 -13 -31 -30 -9 -16 -20 -30 -26 -30 -6 0 -8 -8 -5
-17 2 -10 8 -33 11 -52 7 -33 7 -34 -21 -27 -42 11 -47 19 -35 61 9 35 8 40
-14 61 -24 22 -25 53 -3 81 12 14 2 33 -16 33 -20 0 -36 24 -27 38 6 11 20 9
67 -8 32 -12 75 -25 94 -29 53 -12 132 -52 159 -80 l23 -26 -5 37 c-3 22 0 43
8 55 19 25 31 8 16 -21 -17 -31 -2 -66 18 -42 11 13 17 13 57 -2 34 -13 44
-21 44 -39 0 -34 18 -37 25 -3 4 16 21 41 38 55 18 14 52 42 76 63 61 52 79
56 167 38 42 -9 100 -16 129 -16 73 0 155 20 155 38 0 7 9 16 19 19 11 3 22
12 25 20 8 19 26 7 26 -18 0 -10 5 -19 10 -19 6 0 10 7 10 15 0 17 36 56 44
48 10 -10 27 51 21 76 -7 29 -20 18 -32 -28 -5 -19 -15 -37 -22 -39 -11 -4
-12 5 -7 42 l7 46 -28 -11 c-15 -5 -33 -15 -40 -21 -22 -18 -43 10 -43 56 0
34 -7 47 -38 77 -20 20 -44 39 -52 42 -10 4 -8 6 7 6 12 1 25 -3 28 -9 8 -13
25 -13 25 0 0 20 -90 38 -210 43 -34 2 -46 16 -47 55 0 33 0 34 36 28 l36 -5
-32 11 c-18 6 -33 15 -33 19 0 12 0 12 50 -6 23 -8 68 -15 99 -16 42 -1 50 -3
31 -9 -25 -7 -25 -7 5 -11 18 -2 29 -9 27 -17 -2 -9 4 -11 17 -7 37 11 88 -5
100 -32 13 -29 8 -41 -11 -25 -14 11 -31 2 -56 -29 -10 -13 -8 -21 13 -43 18
-19 31 -25 45 -21 11 4 20 2 20 -3 0 -13 94 9 137 31 18 9 41 17 52 17 11 0
41 11 66 26 29 15 53 23 66 19 22 -7 155 52 163 73 3 7 1 10 -4 7 -9 -6 -15
16 -11 39 1 4 -12 6 -28 4 -22 -3 -31 0 -34 14 -3 11 0 18 8 18 7 0 15 6 18
14 4 10 0 12 -14 9 -13 -4 -19 0 -19 11 0 9 -4 16 -10 16 -13 0 -13 -13 1 -27
8 -8 6 -16 -10 -29 -21 -19 -30 -41 -11 -29 6 3 10 2 10 -3 0 -10 -29 -26 -42
-24 -5 1 -8 -7 -8 -18 0 -11 -7 -20 -15 -20 -9 0 -12 6 -9 15 4 8 1 15 -6 15
-6 0 -8 -4 -5 -10 3 -5 1 -10 -6 -10 -8 0 -8 -4 1 -15 10 -13 9 -15 -8 -15
-12 0 -26 -9 -32 -20 -9 -17 -14 -18 -35 -8 -14 6 -25 15 -25 20 0 5 -4 6 -10
3 -14 -8 18 76 36 96 8 9 17 39 21 68 3 28 10 51 14 51 5 0 9 5 9 11 0 6 -5 9
-11 7 -6 -2 -28 13 -49 34 -30 31 -45 38 -76 38 -23 0 -49 8 -64 20 -14 11
-30 20 -37 20 -6 0 -19 7 -28 16 -9 9 -26 17 -39 17 -30 0 -86 -50 -86 -77 0
-29 -11 -43 -41 -55 -15 -5 -29 -18 -31 -29 -5 -18 1 -21 56 -27 74 -7 87 -14
80 -41 -5 -20 -11 -20 -177 -16 -152 4 -170 3 -159 -10 10 -13 9 -17 -10 -22
-47 -12 -59 -8 -52 19 6 23 3 25 -25 25 -17 0 -31 -4 -31 -10 0 -5 -8 -10 -18
-10 -13 0 -18 7 -17 23 2 12 -7 30 -19 40 l-21 19 22 -5 c25 -6 52 18 31 26
-7 3 -3 6 9 6 12 1 25 -4 28 -9 10 -17 24 -2 18 20 -3 11 2 31 11 44 9 14 13
32 10 40 -6 16 -64 40 -64 26 0 -4 14 -13 30 -19 46 -16 36 -29 -14 -17 -25 6
-42 14 -40 18 3 4 -9 6 -26 4 -24 -3 -32 1 -43 23 -7 14 -18 27 -25 27 -6 1
-13 2 -14 4 -2 1 -12 3 -23 5 -25 5 -43 29 -57 80 -7 22 -17 43 -23 47 -6 5
-6 8 2 8 7 0 16 -7 21 -17 9 -15 10 -14 19 3 18 38 4 74 -28 74 -10 0 -19 -4
-19 -10z m2 -283 c15 -5 25 -13 22 -18 -3 -5 -9 -7 -14 -4 -5 3 -11 1 -15 -5
-3 -5 -11 -10 -18 -10 -8 0 -8 3 1 12 19 19 14 26 -23 30 -32 4 -35 2 -35 -22
0 -14 -4 -20 -8 -14 -4 6 -14 14 -22 17 -12 4 -11 6 3 6 10 1 17 9 17 20 0 20
2 20 92 -12z m28 13 c0 -5 -5 -10 -11 -10 -5 0 -7 5 -4 10 3 6 8 10 11 10 2 0
4 -4 4 -10z m174 -5 c4 -13 2 -14 -14 -5 -23 13 -26 20 -6 20 8 0 16 -7 20
-15z m-108 -17 c5 -8 2 -9 -11 -5 -9 4 -24 2 -31 -4 -12 -10 -13 -9 -8 5 7 19
39 22 50 4z m568 -22 c-10 -8 -21 -12 -24 -10 -5 6 21 24 34 24 6 0 1 -6 -10
-14z m-774 -46 c0 -5 -2 -10 -4 -10 -3 0 -8 5 -11 10 -3 6 -1 10 4 10 6 0 11
-4 11 -10z m270 -16 c0 -2 -9 -4 -20 -4 -11 0 -20 4 -20 9 0 5 9 7 20 4 11 -3
20 -7 20 -9z m778 -56 c-6 -16 -36 -34 -44 -25 -9 9 15 37 33 37 8 0 13 -5 11
-12z m-1351 -100 c-3 -7 -5 -2 -5 12 0 14 2 19 5 13 2 -7 2 -19 0 -25z m9 -27
c-4 -5 0 -11 6 -13 8 -3 4 -9 -10 -17 -14 -7 -22 -8 -22 -1 0 5 6 10 13 11 8
0 8 2 -2 6 -11 5 -11 7 0 14 18 11 22 11 15 0z m-228 -54 c12 -13 19 -27 15
-30 -3 -4 3 -7 15 -7 11 0 24 -4 27 -10 3 -5 15 -10 26 -10 32 0 21 -18 -23
-40 -24 -11 -65 -33 -93 -49 -75 -42 -99 -46 -115 -16 -7 14 -22 25 -32 25
-26 0 -34 28 -15 58 12 21 144 100 168 102 3 0 15 -10 27 -23z m252 13 c0 -5
-7 -10 -16 -10 -8 0 -12 5 -9 10 3 6 10 10 16 10 5 0 9 -4 9 -10z m112 -35
c-6 -35 -28 -51 -44 -33 -17 17 -17 30 2 49 21 23 48 13 42 -16z m1088 15
c-19 -12 -30 -12 -30 -1 0 10 31 20 40 14 2 -2 -2 -8 -10 -13z m-1263 -13 c-6
-17 -77 -60 -77 -47 0 11 72 71 78 65 3 -2 2 -10 -1 -18z m72 -21 c-3 -3 -11
5 -18 17 -13 21 -12 21 5 5 10 -10 16 -20 13 -22z m1326 24 c3 -5 -1 -10 -9
-10 -8 0 -18 5 -21 10 -3 6 1 10 9 10 8 0 18 -4 21 -10z m-1287 -80 c-4 -18
-30 -20 -36 -2 -2 8 3 10 15 7 17 -6 17 -6 0 7 -46 32 -49 37 -14 21 24 -11
37 -23 35 -33z m382 40 c0 -5 -2 -10 -4 -10 -3 0 -8 5 -11 10 -3 6 -1 10 4 10
6 0 11 -4 11 -10z m-174 -22 c-1 -25 -18 -48 -35 -48 -6 0 -12 -8 -12 -17 -1
-10 -4 -4 -8 12 -4 17 -3 32 1 33 4 2 8 10 8 17 0 12 11 18 41 24 3 0 5 -9 5
-21z m293 -13 c13 -14 19 -25 15 -25 -11 1 -54 36 -54 44 0 13 16 5 39 -19z
m-426 9 c9 -10 -21 -36 -33 -29 -8 5 -7 11 1 21 12 15 22 18 32 8z m-148 -34
c3 -5 1 -10 -4 -10 -6 0 -11 5 -11 10 0 6 2 10 4 10 3 0 8 -4 11 -10z m106 -3
c-1 -12 -15 -9 -19 4 -3 6 1 10 8 8 6 -3 11 -8 11 -12z m-55 -11 c10 -8 17
-17 14 -19 -3 -3 -16 3 -30 13 -29 22 -14 27 16 6z m2172 -72 c21 -27 21 -30
5 -41 -10 -7 -24 -17 -30 -23 -9 -8 -19 -8 -33 0 -27 14 -25 26 5 46 14 9 25
20 25 24 0 4 -11 11 -25 14 -20 5 -25 12 -25 39 l1 32 27 -31 c15 -17 37 -44
50 -60z m-2217 60 l34 -15 -37 5 c-26 3 -38 0 -42 -10 -4 -9 -11 -12 -18 -7
-7 4 -16 8 -20 8 -3 0 -10 3 -14 8 -4 4 5 6 21 5 16 -2 30 3 33 10 5 15 3 15
43 -4z m329 4 c0 -7 -5 -20 -10 -28 -8 -12 -10 -9 -10 13 0 15 5 27 10 27 6 0
10 -6 10 -12z m2029 -14 c3 -16 1 -17 -13 -5 -19 16 -21 34 -3 29 6 -3 14 -13
16 -24z m-2524 7 c11 -5 25 -4 32 1 9 7 15 3 22 -14 5 -13 28 -33 54 -46 77
-39 76 -49 -5 -45 -52 2 -75 7 -81 18 -9 17 -47 21 -47 5 0 -13 -50 -2 -69 15
-12 12 -10 18 10 44 24 30 47 36 84 22z m421 -28 c-11 -11 -17 4 -9 23 7 18 8
18 11 1 2 -10 1 -21 -2 -24z m678 2 c14 -21 14 -25 2 -25 -8 0 -26 5 -40 12
-20 9 -23 14 -15 25 17 20 35 16 53 -12z m111 -5 c-3 -5 -14 -10 -23 -9 -14 0
-13 2 3 9 27 11 27 11 20 0z m-1028 -6 c-3 -3 -12 -4 -19 -1 -8 3 -5 6 6 6 11
1 17 -2 13 -5z m359 -49 c-14 -13 -26 -32 -26 -43 0 -18 -18 -42 -32 -42 -13
0 -9 27 5 39 8 6 12 23 9 41 -3 19 0 30 8 30 7 0 10 -7 6 -15 -3 -8 -3 -15 0
-15 12 0 34 30 34 47 1 17 1 17 11 0 9 -15 6 -23 -15 -42z m219 -5 c3 -5 -1
-10 -9 -10 -9 0 -16 5 -16 10 0 6 4 10 9 10 6 0 13 -4 16 -10z m-275 -9 c0 -5
-7 -12 -16 -15 -24 -9 -28 -7 -14 9 14 17 30 20 30 6z m-240 -11 c0 -6 15 -19
33 -30 43 -27 24 -25 -24 2 -21 11 -36 25 -33 30 7 11 24 10 24 -2z m2244 -5
c-7 -17 -20 -20 -28 -6 -4 5 0 12 6 14 23 9 28 7 22 -8z m-2109 -55 c3 -5 1
-10 -4 -10 -6 0 -11 5 -11 10 0 6 2 10 4 10 3 0 8 -4 11 -10z m-1252 -334 c7
-18 -3 -59 -17 -68 -17 -11 -27 2 -16 22 7 13 6 20 -2 22 -16 6 -2 38 16 38 7
0 16 -6 19 -14z m3013 -36 c6 -25 8 -52 5 -60 -4 -11 -7 -9 -9 8 -3 19 -8 21
-30 15 -24 -6 -26 -5 -14 10 9 11 11 27 7 48 -6 26 -4 30 12 27 12 -2 22 -18
29 -48z m-1589 -17 c-3 -10 -5 -4 -5 12 0 17 2 24 5 18 2 -7 2 -21 0 -30z
m-1507 -74 c0 -4 -7 -6 -15 -3 -8 4 -15 10 -15 15 0 4 7 6 15 3 8 -4 15 -10
15 -15z m290 -28 c0 -10 -8 -25 -17 -32 -15 -12 -16 -12 -10 4 4 10 7 25 7 33
0 8 5 14 10 14 6 0 10 -8 10 -19z m1220 -5 c0 -8 -4 -18 -10 -21 -5 -3 -10 3
-10 14 0 12 5 21 10 21 6 0 10 -6 10 -14z m-1310 -75 c6 -12 6 -22 1 -25 -5
-3 -12 2 -16 12 -5 14 -9 12 -19 -13 -7 -16 -11 -42 -9 -57 4 -30 -11 -38 -21
-12 -10 27 -7 52 9 58 9 3 15 18 15 36 0 20 -5 30 -15 30 -8 0 -15 5 -15 10 0
16 58 -17 70 -39z m60 4 c0 -8 -4 -15 -10 -15 -5 0 -7 7 -4 15 4 8 8 15 10 15
2 0 4 -7 4 -15z m-118 -27 c-7 -7 -12 -8 -12 -2 0 14 12 26 19 19 2 -3 -1 -11
-7 -17z m-342 -30 c0 -4 -8 -9 -19 -13 -10 -3 -23 -15 -29 -28 -8 -17 -11 -18
-11 -5 -1 9 -8 21 -17 26 -27 15 -5 33 37 30 21 -2 39 -6 39 -10z m152 -33
c-6 -34 -12 -32 -12 6 0 16 4 28 9 25 4 -3 6 -17 3 -31z m-149 -10 c-6 -17
-43 -21 -43 -5 0 6 7 10 15 10 8 0 15 5 15 11 0 5 4 8 10 4 5 -3 7 -12 3 -20z
m805 -43 c2 -7 -3 -12 -11 -12 -9 0 -25 -12 -36 -26 l-20 -26 -23 22 c-22 21
-22 22 -2 16 14 -4 28 1 45 18 25 25 40 28 47 8z m-826 -27 c3 -13 1 -22 -3
-19 -9 5 -13 44 -5 44 2 0 6 -11 8 -25z m73 -75 c3 -5 1 -10 -4 -10 -6 0 -11
5 -11 10 0 6 2 10 4 10 3 0 8 -4 11 -10z m41 -31 c4 -8 9 -7 15 2 6 10 9 7 9
-10 0 -19 -4 -22 -21 -18 -17 5 -20 2 -16 -14 3 -10 1 -19 -3 -19 -10 0 -30
56 -23 64 10 10 31 7 39 -5z m34 -309 c0 -5 -2 -10 -4 -10 -3 0 -8 5 -11 10
-3 6 -1 10 4 10 6 0 11 -4 11 -10z m-3569 -201 c11 -11 18 -23 16 -26 -6 -6
-47 28 -47 39 0 13 9 9 31 -13z m359 -109 c0 -5 -4 -10 -10 -10 -5 0 -10 5
-10 10 0 6 5 10 10 10 6 0 10 -4 10 -10z m5782 -65 c4 -19 1 -25 -13 -25 -20
0 -23 8 -13 34 9 24 21 19 26 -9z m-5657 -49 c19 -14 19 -15 -5 -35 -14 -11
-31 -20 -37 -21 -15 0 -17 -36 -3 -45 6 -3 10 -14 10 -23 -1 -12 -5 -9 -15 9
-20 38 -45 45 -45 14 0 -14 -5 -25 -10 -25 -15 0 -26 33 -12 38 8 2 9 9 2 22
-15 28 7 68 39 73 50 8 57 7 76 -7z m573 -159 c3 -13 -3 -17 -27 -17 -33 0
-39 8 -19 28 17 17 42 11 46 -11z m3847 -72 c0 -23 -5 -31 -21 -33 -30 -4 -48
21 -34 48 18 33 55 23 55 -15z m-3871 -172 c8 -19 -8 -38 -23 -29 -16 10 -13
46 3 46 8 0 17 -8 20 -17z m5711 -65 c15 -7 33 -25 41 -40 14 -26 13 -31 -9
-61 -14 -17 -22 -38 -20 -45 3 -7 1 -12 -4 -11 -18 4 -45 -15 -59 -43 -14 -27
-14 -31 2 -43 17 -12 16 -13 -5 -20 -12 -4 -34 -3 -49 1 -15 4 -30 7 -34 6 -5
-1 -8 3 -8 8 0 6 -6 10 -13 10 -7 0 -24 11 -39 25 -15 14 -34 25 -43 25 -26 0
-15 12 80 92 50 41 96 82 104 91 16 20 22 21 56 5z m-2411 -34 c4 -9 4 -19 2
-21 -8 -8 -26 8 -26 23 0 19 16 18 24 -2z m2506 -24 c0 -5 -2 -10 -4 -10 -3 0
-8 5 -11 10 -3 6 -1 10 4 10 6 0 11 -4 11 -10z m-2625 -130 c-3 -5 -11 -10
-16 -10 -6 0 -7 5 -4 10 3 6 11 10 16 10 6 0 7 -4 4 -10z"/>
<path d="M4646 2635 c-3 -8 -1 -15 4 -15 6 0 10 7 10 15 0 8 -2 15 -4 15 -2 0
-6 -7 -10 -15z"/>
<path d="M2741 3434 c0 -11 3 -14 6 -6 3 7 2 16 -1 19 -3 4 -6 -2 -5 -13z"/>
<path d="M6476 3436 c7 -17 -11 -23 -21 -6 -3 6 -12 10 -18 10 -7 0 -3 -7 8
-16 11 -8 25 -12 32 -10 27 11 23 -16 -7 -41 -22 -18 -30 -32 -26 -45 3 -13 0
-18 -9 -15 -8 4 -12 -2 -11 -19 1 -28 17 -27 30 3 12 25 72 57 81 43 9 -15 25
-12 25 4 0 17 35 30 52 20 7 -4 3 4 -10 18 -12 14 -42 31 -65 38 -23 8 -48 18
-55 23 -9 7 -11 6 -6 -7z"/>
<path d="M2512 3428 c-10 -10 -5 -18 20 -40 44 -38 141 -88 168 -88 33 0 178
-80 207 -114 53 -63 6 -99 -100 -76 -34 7 -75 15 -91 18 l-29 5 19 -26 c24
-32 61 -51 149 -78 74 -22 95 -40 87 -72 -3 -10 0 -22 5 -26 6 -3 18 -22 27
-41 8 -19 23 -46 33 -59 18 -24 17 -24 -5 -19 -32 9 -27 -7 15 -45 39 -36 41
-67 4 -67 -17 0 -20 -8 -23 -69 -3 -74 -1 -79 62 -107 14 -6 32 -24 40 -40 16
-31 83 -99 106 -108 18 -7 18 -25 -1 -32 -36 -14 2 -54 51 -54 24 0 17 48 -11
66 -14 9 -25 23 -25 32 0 8 -7 23 -15 32 -19 21 -10 50 15 50 17 0 50 -62 50
-95 0 -8 9 -15 20 -15 13 0 20 7 20 19 0 24 46 62 66 54 8 -3 14 -13 14 -23 0
-9 9 -25 21 -36 16 -15 23 -16 37 -6 44 31 75 26 70 -10 -2 -19 -10 -24 -43
-26 -36 -3 -77 -22 -48 -22 7 0 24 -4 38 -10 25 -10 26 -11 11 -37 -8 -16 -18
-49 -21 -75 -4 -32 -11 -48 -21 -48 -8 0 -14 9 -14 20 0 11 -3 20 -7 21 -5 0
-17 2 -28 5 -11 2 -62 10 -113 18 -51 8 -100 20 -108 27 -8 6 -17 9 -20 6 -3
-3 4 -10 15 -16 11 -6 34 -32 52 -57 30 -44 32 -45 70 -39 35 6 40 4 50 -19 8
-17 20 -26 35 -26 24 0 94 29 105 43 3 4 14 7 25 6 58 -6 72 1 93 43 18 37 19
44 6 51 -24 13 -19 74 8 89 12 7 25 12 28 11 13 -4 31 79 20 90 -13 13 -14 54
-2 62 5 3 12 19 16 36 4 17 13 42 21 57 19 37 18 116 -1 132 -9 7 -17 11 -18
9 -1 -2 -12 -18 -25 -36 -12 -18 -22 -39 -22 -47 0 -13 -20 -26 -41 -26 -5 0
-9 7 -9 16 0 30 -31 46 -107 56 l-77 10 -28 -33 c-15 -19 -28 -42 -28 -51 0
-22 49 -48 91 -48 18 0 30 -2 28 -4 -15 -16 -227 0 -255 19 -14 9 -29 13 -35
10 -22 -14 -40 17 -34 57 5 27 2 46 -9 63 -16 24 -17 49 -3 71 4 7 -4 19 -19
29 -23 15 -26 22 -21 56 3 24 1 40 -7 42 -7 3 -5 11 7 25 17 18 17 25 6 57
-16 43 -6 65 36 80 23 8 30 6 46 -14 10 -13 19 -32 19 -43 0 -14 5 -18 16 -14
9 3 21 6 28 6 7 0 21 6 31 14 18 13 15 18 -53 85 -74 72 -98 83 -126 55 -9 -8
-28 -16 -43 -17 -25 -2 -28 2 -39 53 -7 30 -15 77 -19 103 -4 32 -12 50 -23
54 -9 3 -27 18 -38 32 -21 24 -24 25 -65 14 -37 -10 -48 -9 -68 4 -18 11 -25
12 -31 3 -6 -9 -12 -9 -30 0 -13 7 -55 16 -93 21 -39 5 -75 13 -81 19 -13 13
-19 13 -34 -2z m1141 -823 c4 -8 2 -17 -3 -20 -6 -4 -10 3 -10 14 0 25 6 27
13 6z m-333 -135 c0 -5 -2 -10 -4 -10 -3 0 -8 5 -11 10 -3 6 -1 10 4 10 6 0
11 -4 11 -10z m240 -4 c0 -7 -12 -21 -26 -31 -15 -9 -23 -12 -20 -6 5 7 -1 11
-14 11 -13 0 -18 4 -14 11 3 6 14 9 24 6 11 -3 21 1 24 9 7 18 26 18 26 0z
m-15 -246 c3 -5 1 -15 -5 -22 -6 -7 -17 -22 -25 -33 -10 -15 -17 -17 -25 -9
-9 9 -8 19 4 43 16 31 39 40 51 21z"/>
<path d="M3178 3423 c-9 -10 -19 -37 -23 -60 l-7 -42 44 -6 c44 -6 108 12 159
46 l24 16 -67 32 c-76 35 -108 39 -130 14z"/>
<path d="M6229 3410 l-26 -29 24 -5 c13 -4 37 2 59 13 20 11 43 17 53 14 9 -4
13 -3 9 2 -4 4 -3 14 3 22 9 11 2 13 -42 13 -47 -1 -58 -5 -80 -30z"/>
<path d="M1889 3400 c-13 -10 -19 -20 -14 -20 6 0 18 -7 27 -14 14 -10 16 -19
8 -45 -8 -28 -7 -32 6 -27 9 3 19 6 24 6 18 0 20 35 4 76 -9 24 -20 44 -24 44
-4 0 -18 -9 -31 -20z"/>
<path d="M5163 3387 c-66 -9 -74 -16 -45 -38 9 -7 14 -9 10 -5 -5 5 0 15 11
22 15 11 25 11 52 1 19 -7 37 -16 40 -21 4 -4 10 -3 13 3 4 6 3 11 -3 11 -5 0
-11 8 -13 18 -3 15 -10 16 -65 9z"/>
<path d="M5033 3373 c9 -2 23 -2 30 0 6 3 -1 5 -18 5 -16 0 -22 -2 -12 -5z"/>
<path d="M5345 3360 c3 -5 11 -10 16 -10 6 0 7 5 4 10 -3 6 -11 10 -16 10 -6
0 -7 -4 -4 -10z"/>
<path d="M6317 3353 c-10 -10 -8 -23 4 -23 5 0 8 4 5 9 -4 5 0 12 6 14 7 3 8
6 2 6 -6 1 -14 -2 -17 -6z"/>
<path d="M6267 3334 c-5 -5 -30 -12 -53 -13 -5 -1 -20 -10 -32 -22 -15 -13
-29 -18 -42 -14 -28 9 -25 -4 3 -14 14 -5 25 -4 29 3 5 8 10 8 19 -1 14 -14 4
-33 -17 -33 -8 0 -13 -3 -11 -7 3 -5 28 -7 56 -7 28 1 54 -2 57 -7 3 -5 14 -9
25 -9 11 0 17 4 14 10 -3 5 4 12 17 16 13 3 34 19 47 36 20 25 22 32 10 39
-12 8 -12 10 1 19 8 5 11 10 7 10 -4 0 -19 -7 -33 -16 -32 -22 -100 -29 -84
-9 11 13 -1 30 -13 19z m23 -66 c-15 -6 -20 -12 -12 -15 14 -5 17 -23 3 -23
-5 0 -12 8 -15 17 -7 17 9 33 34 32 8 0 4 -5 -10 -11z m40 -13 c-7 -9 -15 -13
-17 -11 -7 7 7 26 19 26 6 0 6 -6 -2 -15z"/>
<path d="M4483 3311 c-13 -10 -23 -24 -23 -30 0 -6 -9 -15 -20 -21 -11 -6 -18
-15 -16 -19 6 -9 -36 -31 -58 -31 -20 0 -26 -23 -11 -44 16 -21 35 -13 79 33
38 40 79 51 196 51 77 1 91 3 75 12 -11 7 -26 17 -33 24 -15 15 -70 32 -127
40 -30 3 -45 0 -62 -15z"/>
<path d="M5394 3305 c27 -21 53 -20 36 0 -7 8 -22 15 -34 15 -21 -1 -21 -1 -2
-15z"/>
<path d="M2396 3294 c-5 -13 -20 -15 -95 -11 -74 5 -99 2 -143 -15 -64 -24
-62 -22 -49 -46 14 -27 4 -52 -22 -52 -12 0 -37 -11 -58 -25 -41 -29 -108 -37
-133 -16 -10 9 -16 29 -16 56 l0 43 -42 -5 c-47 -6 -68 -18 -68 -39 0 -8 -11
-19 -24 -24 -14 -5 -33 -21 -42 -35 -16 -25 -16 -27 3 -53 10 -14 31 -29 45
-33 36 -9 119 10 143 33 26 25 39 24 42 -4 10 -89 13 -83 -41 -86 -27 -2 -59
-10 -70 -18 -29 -20 -45 -18 -57 9 -8 18 -25 27 -61 36 -74 17 -93 -7 -38 -47
34 -26 38 -46 13 -61 -15 -9 -13 -10 12 -10 17 0 38 6 49 14 25 19 56 3 56
-30 0 -29 -7 -30 -34 -10 -21 16 -53 19 -81 8 -12 -4 9 -14 60 -28 l77 -22 37
20 c20 11 50 37 65 58 37 48 89 63 198 57 73 -4 83 -3 102 16 19 19 33 21 139
22 126 0 147 7 128 43 -9 16 -8 27 4 51 21 41 67 63 118 56 23 -3 35 -3 27 1
-22 9 -110 72 -148 104 -18 16 -45 35 -61 44 -26 13 -30 13 -35 -1z"/>
<path d="M1145 3249 c-64 -30 -129 -35 -154 -11 -23 22 -36 7 -34 -38 2 -34 9
-49 34 -72 30 -28 30 -29 15 -53 -19 -28 -12 -31 24 -10 14 8 46 14 73 15 40
0 47 -3 47 -20 0 -11 -5 -20 -11 -20 -7 0 -33 -13 -59 -29 -26 -16 -61 -32
-78 -34 -16 -3 -38 -9 -48 -15 -14 -8 -34 -5 -74 9 -50 17 -56 18 -67 4 -9
-13 -6 -21 15 -43 25 -25 34 -26 82 -17 8 2 30 4 48 4 21 1 32 6 32 16 0 8 7
15 15 15 21 0 19 -26 -4 -49 -13 -13 -21 -40 -26 -88 -6 -61 -13 -77 -67 -157
-39 -59 -56 -92 -49 -99 7 -7 34 -7 83 0 45 7 77 7 85 1 19 -15 122 -22 146
-10 12 6 40 16 61 23 34 10 41 9 51 -5 10 -13 18 -14 39 -6 15 5 25 14 22 19
-4 5 -3 16 0 24 5 13 8 13 25 -4 10 -10 19 -26 19 -34 0 -8 11 -25 25 -39 20
-20 35 -57 23 -56 -19 1 -82 31 -81 38 5 23 -56 17 -113 -11 -39 -19 -49 -27
-29 -23 78 15 125 18 125 8 0 -5 -7 -12 -15 -16 -27 -10 -16 -26 19 -26 19 0
53 -10 76 -22 48 -26 60 -18 60 44 0 32 4 39 25 44 41 10 56 -1 45 -32 -13
-33 -9 -37 24 -25 21 9 36 5 83 -21 73 -39 83 -47 94 -75 9 -23 43 -32 54 -13
3 6 24 10 46 10 26 0 42 5 45 15 4 8 15 15 26 15 12 0 19 6 17 18 -3 33 1 42
19 42 10 0 23 5 29 11 9 9 26 9 69 0 68 -13 87 -14 80 -2 -9 14 41 54 60 47
15 -6 12 -11 -17 -36 -29 -25 -31 -29 -13 -30 11 0 32 6 47 13 24 10 27 16 22
44 -5 30 -3 34 35 53 22 11 40 25 40 30 0 6 21 10 47 10 51 0 125 -36 143 -70
13 -25 53 -25 99 -1 33 18 35 21 37 77 1 33 5 76 9 97 7 36 5 41 -39 82 -56
51 -115 74 -211 82 -54 4 -74 1 -90 -11 -19 -15 -19 -15 13 -16 29 0 33 -3 30
-22 -2 -15 -10 -23 -23 -23 -11 0 -19 5 -18 10 1 8 -58 11 -124 6 -6 -1 -9
-10 -6 -20 6 -22 80 -47 114 -38 28 8 59 -9 59 -31 0 -20 -35 -80 -61 -105
-15 -14 -29 -16 -71 -11 -29 4 -62 11 -73 17 -11 6 -40 9 -64 8 -43 -3 -47 0
-96 55 -53 58 -83 66 -71 18 5 -17 3 -22 -8 -18 -7 3 -20 -2 -29 -10 -9 -9
-31 -16 -49 -16 l-33 -1 38 -13 c36 -13 38 -13 69 16 29 27 33 28 39 11 4 -11
0 -24 -13 -36 -14 -14 -17 -26 -12 -53 8 -46 -12 -45 -49 1 -15 19 -34 35 -42
35 -8 0 -15 5 -15 12 0 9 -3 9 -12 0 -17 -17 -58 -15 -80 5 -17 15 -20 15 -35
0 -15 -15 -17 -14 -34 7 -10 13 -23 35 -29 50 -11 31 -21 33 -45 6 -27 -29
-38 -24 -20 10 30 59 17 80 -51 80 -31 0 -35 4 -59 55 -23 49 -30 55 -56 55
-17 0 -40 5 -51 11 -19 10 -20 9 -16 -30 l4 -41 -39 0 c-47 0 -67 17 -60 54 6
30 37 56 68 56 12 0 26 5 32 11 15 15 69 -3 103 -33 36 -33 96 -61 110 -53 7
4 14 -1 17 -14 5 -20 58 -44 76 -34 18 10 5 33 -18 33 -31 0 -75 27 -75 46 0
9 -12 14 -37 14 -29 0 -34 3 -25 12 20 20 15 76 -8 83 -11 4 -18 10 -15 15 3
5 -1 11 -7 13 -9 4 -8 6 2 6 8 1 20 18 27 38 10 32 9 39 -5 50 -31 23 -86 15
-148 -22 -32 -19 -61 -35 -66 -35 -4 0 -8 -8 -8 -19 0 -26 -22 -41 -49 -34
-20 5 -22 10 -16 47 5 26 19 54 40 76 49 52 56 70 40 100 -24 46 -52 50 -120
19z m155 -271 c0 -3 3 -13 6 -22 4 -10 1 -16 -9 -16 -8 0 -20 14 -26 31 -14
41 -14 41 9 27 11 -7 20 -16 20 -20z m-193 -84 c3 -9 0 -20 -7 -24 -7 -4 -9
-16 -6 -27 8 -24 -20 -60 -49 -65 -18 -3 -20 2 -17 36 2 25 12 48 30 67 31 33
40 35 49 13z m1116 -121 c-7 -2 -19 -2 -25 0 -7 3 -2 5 12 5 14 0 19 -2 13 -5z
m-893 -108 c0 -8 -4 -15 -10 -15 -5 0 -7 7 -4 15 4 8 8 15 10 15 2 0 4 -7 4
-15z m-230 -50 c-16 -19 -30 -19 -30 0 0 17 33 38 38 24 2 -5 -2 -16 -8 -24z
m1274 9 c20 -8 21 -34 1 -34 -8 0 -15 2 -15 4 0 2 -3 11 -6 20 -7 18 -4 19 20
10z m-874 -14 c0 -12 -28 -25 -36 -17 -9 9 6 27 22 27 8 0 14 -5 14 -10z m320
-188 c0 -5 -9 -17 -20 -27 -14 -13 -24 -15 -31 -8 -8 8 -4 15 12 27 26 18 39
20 39 8z"/>
<path d="M6393 3265 c-3 -9 -3 -18 -1 -21 3 -3 8 4 11 16 6 23 -1 27 -10 5z"/>
<path d="M5190 3270 c-1 -3 -4 -15 -5 -28 -1 -15 1 -20 7 -14 6 6 8 18 5 28
-3 11 -6 17 -7 14z"/>
<path d="M6056 3238 c70 -33 94 -35 94 -9 0 23 -27 32 -99 35 l-53 3 58 -29z"/>
<path d="M2005 3239 c-4 -11 -5 -23 -2 -26 9 -9 47 17 47 32 0 23 -38 18 -45
-6z"/>
<path d="M4781 3252 c-1 -9 -9 -11 -23 -7 -18 4 -17 2 5 -10 33 -19 37 -17 26
10 -4 11 -8 14 -8 7z"/>
<path d="M5482 3248 c2 -6 10 -14 16 -16 7 -2 10 2 6 12 -7 18 -28 22 -22 4z"/>
<path d="M3411 3226 c-6 -7 -41 -22 -77 -32 -69 -20 -85 -34 -64 -59 19 -23
52 -18 103 16 26 17 52 32 59 33 7 2 21 6 31 11 17 7 17 9 1 26 -20 23 -37 24
-53 5z"/>
<path d="M4597 3232 c-9 -2 -14 -8 -11 -14 4 -7 2 -8 -5 -4 -6 4 -24 0 -39
-10 -15 -10 -38 -20 -52 -22 -32 -4 -38 -11 -20 -22 9 -6 17 -5 22 3 5 9 8 8
8 -3 0 -23 -287 -77 -330 -62 -29 11 -30 10 -30 -20 0 -18 -8 -37 -17 -44 -15
-11 -15 -15 -5 -22 11 -7 9 -10 -7 -15 -15 -3 -21 0 -21 10 0 12 -5 10 -21 -8
-19 -22 -19 -24 -2 -30 18 -6 70 4 108 21 20 9 64 17 146 26 l46 6 -1 -31 c-1
-21 -7 -33 -19 -37 -11 -3 -27 -14 -37 -24 -23 -23 -76 -39 -158 -47 -43 -4
-60 -9 -53 -16 7 -7 5 -15 -7 -23 -25 -19 -29 -17 -29 12 0 14 -5 30 -10 35
-13 13 -113 20 -113 8 0 -5 -13 -9 -28 -9 -29 0 -71 -34 -59 -47 4 -3 7 -1 7
5 0 7 7 12 15 12 9 0 15 -6 14 -12 -2 -20 12 -58 22 -58 5 0 3 -12 -3 -27 -7
-16 -12 -29 -13 -30 0 -1 -18 2 -38 7 -34 7 -39 6 -46 -13 -5 -12 -16 -22 -26
-22 -24 0 -30 -19 -11 -37 10 -11 12 -18 4 -26 -5 -5 -10 -38 -9 -72 0 -34 -9
-105 -20 -156 -11 -52 -19 -111 -17 -131 l3 -36 33 33 c24 26 35 31 44 22 9
-9 7 -16 -7 -32 -16 -18 -16 -20 -1 -20 9 0 24 9 33 20 10 11 22 20 29 20 6 0
16 12 23 26 10 23 16 25 59 23 l47 -3 0 102 c0 92 -2 102 -18 102 -27 0 -57
19 -57 35 0 9 20 25 45 37 26 13 44 27 41 34 -3 7 2 18 10 24 8 7 14 25 14 41
0 40 18 36 26 -6 4 -21 10 -32 17 -28 15 9 67 9 67 0 0 -4 -8 -11 -17 -15 -10
-4 -19 -17 -20 -30 -2 -13 1 -21 7 -17 6 3 10 2 10 -3 0 -17 64 -20 99 -6 18
8 44 14 57 14 12 0 29 7 38 15 8 8 21 15 28 15 8 1 4 8 -9 19 l-22 19 25 48
c44 84 50 93 81 128 33 35 55 85 33 71 -7 -4 -26 -10 -43 -11 l-30 -4 22 19
c12 10 20 23 19 28 -2 4 9 22 25 38 15 16 27 25 27 19 0 -5 -5 -15 -12 -22 -9
-9 -9 -12 -1 -12 7 0 21 13 33 30 12 16 32 33 46 36 13 3 24 10 24 16 0 5 5 6
10 3 14 -9 12 2 -6 30 -8 13 -14 38 -12 57 3 29 7 33 35 36 28 3 31 1 26 -18
-4 -13 0 -26 8 -31 10 -6 10 -9 2 -9 -7 0 -13 -6 -13 -12 1 -7 9 -3 19 9 l19
23 8 -28 c4 -15 9 -36 10 -46 2 -22 37 -52 42 -36 2 5 14 7 26 4 12 -3 47 4
77 15 66 26 65 26 72 0 5 -19 27 -19 27 0 0 10 -115 80 -182 111 -29 14 -45
27 -42 35 5 13 -52 24 -89 17z m198 -104 c18 -17 15 -17 -20 3 -51 29 -56 33
-25 24 14 -4 34 -16 45 -27z m-95 2 c0 -5 -2 -10 -4 -10 -3 0 -8 5 -11 10 -3
6 -1 10 4 10 6 0 11 -4 11 -10z m-283 -236 c-3 -3 -12 -4 -19 -1 -8 3 -5 6 6
6 11 1 17 -2 13 -5z m-150 -33 c-7 -32 8 -44 51 -44 17 0 20 -3 11 -13 -6 -7
-17 -10 -25 -7 -8 3 -14 1 -14 -5 0 -5 -12 -12 -26 -15 -22 -4 -25 -2 -20 17
2 11 8 38 11 59 4 20 10 37 12 37 3 0 3 -13 0 -29z m-347 -1 c0 -5 -2 -10 -4
-10 -3 0 -8 5 -11 10 -3 6 -1 10 4 10 6 0 11 -4 11 -10z m35 -48 c-8 -8 -25
10 -19 20 4 6 9 5 15 -3 4 -7 6 -15 4 -17z m137 -4 c-9 -9 -15 -9 -24 0 -9 9
-7 12 12 12 19 0 21 -3 12 -12z m84 -27 c8 7 14 7 14 1 0 -12 -26 -23 -34 -15
-3 4 -5 13 -5 22 1 12 2 12 6 -2 4 -14 8 -16 19 -6z m-246 -35 c0 -3 -4 -8
-10 -11 -5 -3 -10 -1 -10 4 0 6 5 11 10 11 6 0 10 -2 10 -4z m260 -76 c0 -5
-2 -10 -4 -10 -3 0 -8 5 -11 10 -3 6 -1 10 4 10 6 0 11 -4 11 -10z m-290 -141
c0 -11 -14 -33 -31 -49 -31 -28 -59 -30 -59 -4 0 7 -8 18 -17 24 -15 9 -10 10
24 8 35 -3 44 0 54 19 15 29 29 30 29 2z"/>
<path d="M6560 3220 c-19 -3 -56 -17 -83 -30 -49 -24 -89 -60 -69 -60 7 0 12
4 12 8 0 12 47 32 75 32 16 0 25 6 25 16 0 14 3 14 15 4 12 -10 21 -10 43 -1
20 8 36 9 55 2 17 -7 27 -7 27 -1 0 6 -9 10 -20 10 -12 0 -17 5 -14 13 5 15
-15 17 -66 7z"/>
<path d="M6168 3208 c-42 -15 -34 -28 17 -28 33 0 45 4 45 15 0 9 -6 12 -17 8
-11 -4 -14 -3 -9 5 8 14 1 14 -36 0z"/>
<path d="M4239 3208 c-8 -26 -3 -48 12 -48 26 0 32 17 8 23 -12 3 -18 10 -14
16 3 6 4 11 1 11 -3 0 -6 -1 -7 -2z"/>
<path d="M4961 3179 c-13 -5 -38 -11 -55 -13 -16 -2 -32 -8 -34 -15 -5 -14 -1
-14 73 4 33 8 69 12 81 9 12 -3 25 -1 28 5 4 6 -1 11 -11 11 -10 0 -27 2 -38
5 -11 2 -31 0 -44 -6z"/>
<path d="M5665 3185 c-5 -2 -22 -6 -37 -9 -19 -4 -28 -13 -28 -25 0 -11 -6
-22 -12 -25 -7 -3 -3 -3 9 -1 12 3 24 1 28 -5 4 -7 14 -5 28 5 12 8 34 15 49
15 14 0 39 5 55 11 27 10 27 11 9 25 -18 13 -75 18 -101 9z"/>
<path d="M6908 3184 c-4 -6 -19 -9 -33 -6 -15 2 -25 0 -25 -8 0 -6 6 -10 13
-7 6 2 36 -7 66 -20 30 -14 63 -22 73 -20 10 3 16 2 13 -3 -3 -4 1 -10 8 -13
18 -7 18 24 0 41 -7 7 -17 11 -22 8 -5 -3 -22 1 -37 9 -26 13 -29 13 -35 -3
-5 -14 -7 -12 -10 8 -2 15 -7 20 -11 14z m57 -34 c3 -5 1 -10 -4 -10 -6 0 -11
5 -11 10 0 6 2 10 4 10 3 0 8 -4 11 -10z"/>
<path d="M6250 3155 c7 -8 17 -15 22 -15 6 0 5 7 -2 15 -7 8 -17 15 -22 15 -6
0 -5 -7 2 -15z"/>
<path d="M3497 3143 c-13 -12 -7 -32 13 -43 18 -9 18 -8 9 20 -12 33 -12 33
-22 23z"/>
<path d="M4317 3139 c7 -7 15 -10 18 -7 3 3 -2 9 -12 12 -14 6 -15 5 -6 -5z"/>
<path d="M6651 3134 c0 -11 3 -14 6 -6 3 7 2 16 -1 19 -3 4 -6 -2 -5 -13z"/>
<path d="M4950 3129 c0 -5 5 -7 10 -4 6 3 10 8 10 11 0 2 -4 4 -10 4 -5 0 -10
-5 -10 -11z"/>
<path d="M5703 3128 c-24 -5 -43 -13 -43 -17 0 -13 -37 -20 -48 -9 -6 6 -11 4
-15 -5 -4 -11 13 -17 76 -26 99 -13 127 -14 127 -2 0 5 -10 7 -22 4 -21 -4
-20 -2 7 21 25 22 28 28 15 36 -18 12 -40 11 -97 -2z"/>
<path d="M4588 3125 c-11 -11 3 -35 21 -35 10 0 12 3 5 8 -6 4 -13 13 -15 20
-3 7 -7 10 -11 7z"/>
<path d="M1520 3109 c0 -16 29 -28 62 -26 56 4 53 12 -7 23 -30 5 -55 7 -55 3z"/>
<path d="M6730 3100 c0 -5 5 -10 10 -10 6 0 10 5 10 10 0 6 -4 10 -10 10 -5 0
-10 -4 -10 -10z"/>
<path d="M6551 3091 c-8 -5 -24 -8 -36 -6 -13 1 -27 -6 -34 -17 -7 -11 -7 -18
-1 -18 5 0 10 4 10 8 0 5 17 9 38 9 20 0 48 1 62 2 24 2 24 2 6 16 -23 17 -26
18 -45 6z"/>
<path d="M6673 3093 c4 -3 0 -11 -9 -17 -12 -10 -4 -14 46 -24 34 -7 65 -11
68 -8 3 3 -2 6 -12 6 -9 0 -14 5 -11 10 3 6 -4 10 -18 10 -14 0 -30 7 -37 15
-7 8 -17 15 -23 15 -6 0 -7 -3 -4 -7z"/>
<path d="M6396 3063 c-6 -14 -5 -15 5 -6 7 7 10 15 7 18 -3 3 -9 -2 -12 -12z"/>
<path d="M766 3055 c-3 -10 -3 -22 3 -28 12 -12 20 4 11 27 -6 19 -7 19 -14 1z"/>
<path d="M4587 3058 c-4 -14 70 -64 80 -54 3 3 -8 13 -26 23 -17 10 -31 24
-31 31 0 6 -4 12 -9 12 -5 0 -11 -6 -14 -12z"/>
<path d="M3542 3044 c1 -9 9 -19 16 -22 9 -3 13 2 10 14 -1 9 -9 19 -16 22 -9
3 -13 -2 -10 -14z"/>
<path d="M4535 3039 c-4 -6 -5 -12 -2 -15 7 -7 37 7 37 17 0 13 -27 11 -35 -2z"/>
<path d="M7150 3029 c0 -16 -4 -19 -21 -14 -15 5 -19 4 -15 -4 4 -6 16 -11 27
-11 14 0 19 7 19 25 0 14 -2 25 -5 25 -3 0 -5 -9 -5 -21z"/>
<path d="M6407 3033 c-10 -9 -9 -23 1 -23 5 0 9 7 9 15 0 17 -1 18 -10 8z"/>
<path d="M4032 3003 c-2 -26 -1 -26 12 -8 8 11 12 23 10 27 -10 16 -20 7 -22
-19z"/>
<path d="M6800 3022 c0 -13 27 -35 39 -30 5 1 -2 11 -15 21 -13 10 -24 14 -24
9z"/>
<path d="M7077 3000 c3 -11 10 -20 17 -20 6 0 22 -3 36 -6 21 -5 19 -2 -12 20
-44 31 -48 32 -41 6z"/>
<path d="M710 3003 c0 -5 5 -15 10 -23 9 -13 11 -13 20 0 15 22 12 30 -10 30
-11 0 -20 -3 -20 -7z"/>
<path d="M6557 3003 c-15 -14 -5 -21 28 -20 19 1 34 6 32 11 -4 12 -51 19 -60
9z"/>
<path d="M4968 2993 c6 -2 18 -2 25 0 6 3 1 5 -13 5 -14 0 -19 -2 -12 -5z"/>
<path d="M6380 2990 c0 -5 5 -10 10 -10 6 0 10 5 10 10 0 6 -4 10 -10 10 -5 0
-10 -4 -10 -10z"/>
<path d="M7175 2968 c4 -18 12 -36 18 -39 5 -4 7 -11 3 -17 -3 -6 -1 -14 5
-18 8 -5 9 -3 4 5 -4 8 3 6 17 -3 32 -21 62 -11 54 18 -3 11 -6 24 -6 29 0 11
-30 8 -30 -4 0 -6 -6 -9 -12 -6 -7 2 -12 12 -10 22 2 9 -1 14 -6 11 -5 -3 -12
3 -15 14 -9 35 -29 24 -22 -12z"/>
<path d="M3375 2975 c-22 -8 -52 -14 -66 -14 -14 -1 -41 -15 -60 -32 -33 -30
-33 -31 -14 -45 25 -19 85 -15 156 8 50 17 58 17 84 4 20 -10 24 -17 14 -20
-8 -2 -34 -11 -58 -18 -50 -16 -72 -44 -25 -32 15 4 39 13 53 20 14 8 30 14
35 14 5 0 14 8 21 17 10 14 34 17 141 20 104 2 131 5 143 19 15 15 14 16 -2
11 -10 -4 -44 4 -75 17 -44 19 -73 24 -126 23 -48 -1 -71 2 -74 11 -5 16 -94
14 -147 -3z"/>
<path d="M7151 2961 c-8 -6 -11 -16 -7 -27 5 -12 10 -14 17 -7 16 16 7 45 -10
34z"/>
<path d="M6740 2930 c0 -12 40 -34 48 -26 3 4 -3 13 -14 21 -22 17 -34 19 -34
5z"/>
<path d="M585 2885 c-14 -25 -24 -49 -21 -54 7 -11 -18 -33 -34 -29 -8 2 -15
-10 -17 -28 -3 -28 0 -33 28 -43 42 -15 59 -14 59 2 0 8 14 33 31 57 l31 43
-28 23 c-30 24 -28 27 16 25 14 -1 39 3 55 8 l30 9 -37 16 c-63 27 -83 22
-113 -29z"/>
<path d="M6268 2923 c7 -3 16 -2 19 1 4 3 -2 6 -13 5 -11 0 -14 -3 -6 -6z"/>
<path d="M5740 2916 c0 -2 7 -6 15 -10 8 -3 15 -1 15 4 0 6 -7 10 -15 10 -8 0
-15 -2 -15 -4z"/>
<path d="M6560 2909 c0 -5 5 -7 10 -4 6 3 10 8 10 11 0 2 -4 4 -10 4 -5 0 -10
-5 -10 -11z"/>
<path d="M7090 2905 c0 -8 4 -15 9 -15 5 0 15 -16 21 -35 6 -19 16 -35 21 -35
5 0 18 -9 30 -21 l20 -20 -3 53 c-3 50 -5 53 -31 56 -16 2 -31 10 -34 18 -7
19 -33 18 -33 -1z"/>
<path d="M6680 2890 c0 -5 5 -10 10 -10 6 0 10 5 10 10 0 6 -4 10 -10 10 -5 0
-10 -4 -10 -10z"/>
<path d="M471 2853 c-34 -41 -32 -61 4 -37 13 9 28 13 33 10 12 -7 23 30 15
50 -8 22 -19 17 -52 -23z"/>
<path d="M1590 2881 c0 -8 52 -22 58 -16 2 1 -11 7 -27 13 -17 6 -31 7 -31 3z"/>
<path d="M5850 2875 c0 -8 7 -15 15 -15 8 0 15 7 15 15 0 8 -7 15 -15 15 -8 0
-15 -7 -15 -15z"/>
<path d="M6880 2883 c1 -13 38 -53 49 -53 20 0 12 16 -19 38 -16 13 -30 19
-30 15z"/>
<path d="M7210 2871 c0 -5 7 -12 16 -15 24 -9 28 -7 14 9 -14 17 -30 20 -30 6z"/>
<path d="M6568 2853 c7 -3 16 -2 19 1 4 3 -2 6 -13 5 -11 0 -14 -3 -6 -6z"/>
<path d="M3571 2834 c-41 -29 5 -71 58 -53 52 18 38 53 -26 65 -6 1 -21 -4
-32 -12z"/>
<path d="M2061 2825 c-20 -7 -49 -9 -73 -5 -22 4 -41 3 -44 -2 -9 -13 15 -28
45 -28 14 0 40 -5 58 -12 28 -10 38 -9 62 5 16 9 36 17 44 17 8 0 20 6 26 14
22 26 -56 34 -118 11z"/>
<path d="M6800 2809 c0 -8 26 -19 46 -19 8 0 14 6 14 13 0 8 -12 14 -30 14
-16 0 -30 -4 -30 -8z"/>
<path d="M3331 2801 c-9 -6 -10 -11 -2 -15 13 -8 31 1 31 15 0 11 -11 11 -29
0z"/>
<path d="M7226 2777 c3 -10 9 -15 12 -12 3 3 0 11 -7 18 -10 9 -11 8 -5 -6z"/>
<path d="M6376 2772 c-4 -7 -14 -11 -22 -8 -8 3 -11 0 -7 -10 3 -9 -1 -14 -13
-12 -40 3 -64 -3 -64 -16 0 -7 -7 -27 -15 -42 -15 -29 -19 -54 -10 -54 14 0
62 30 79 49 11 12 25 21 33 21 15 0 35 45 31 69 -3 13 -5 13 -12 3z"/>
<path d="M3140 2760 c19 -13 30 -13 30 0 0 6 -10 10 -22 10 -19 0 -20 -2 -8
-10z"/>
<path d="M3785 2750 c3 -5 10 -10 16 -10 5 0 9 5 9 10 0 6 -7 10 -16 10 -8 0
-12 -4 -9 -10z"/>
<path d="M1760 2733 c0 -12 5 -25 11 -28 16 -11 17 -2 2 25 -12 24 -13 24 -13
3z"/>
<path d="M6550 2654 c0 -17 22 -14 28 4 2 7 -3 12 -12 12 -9 0 -16 -7 -16 -16z"/>
<path d="M530 2631 c0 -11 61 -37 78 -33 6 2 12 -2 12 -8 0 -5 6 -10 13 -10
15 0 42 -40 38 -59 -1 -7 2 -10 8 -7 5 4 15 -2 20 -13 8 -14 7 -22 -4 -31 -23
-19 -58 16 -53 52 5 28 -6 39 -15 16 -3 -9 -16 -2 -37 20 -35 37 -47 39 -66
15 -13 -17 -15 -17 -29 1 -14 18 -15 18 -24 -8 -8 -20 -17 -26 -40 -26 -39 0
-49 -18 -16 -26 15 -4 24 -12 21 -19 -3 -8 2 -11 15 -8 21 6 27 -21 7 -33 -7
-5 -5 -11 7 -21 11 -7 13 -13 7 -13 -18 0 -14 -36 5 -51 15 -12 16 -12 10 4
-6 15 -4 16 13 7 24 -13 26 -30 5 -30 -8 0 -15 -5 -15 -11 0 -7 -14 -10 -35
-7 -19 2 -35 0 -35 -5 0 -5 -7 -7 -15 -3 -10 3 -15 -1 -15 -13 0 -22 -34 -34
-59 -21 -9 5 -25 12 -36 15 -20 7 -20 7 1 15 12 5 26 15 30 22 6 10 5 11 -7 1
-14 -12 -97 -9 -108 3 -3 4 4 5 16 2 14 -4 24 0 27 9 9 23 7 25 -16 17 -13 -4
-29 -7 -36 -7 -7 0 -11 -11 -10 -26 3 -23 0 -26 -29 -25 -41 2 -43 -11 -3 -25
25 -8 30 -7 30 6 0 12 3 13 14 4 8 -7 25 -10 38 -8 12 2 17 2 11 0 -14 -5 -18
-25 -5 -21 4 1 19 -6 34 -16 15 -10 32 -15 38 -11 13 8 13 -8 -1 -22 -7 -7 1
-10 27 -9 32 1 40 -3 52 -26 7 -16 24 -31 38 -34 14 -4 24 -13 24 -24 0 -23
-12 -31 -29 -20 -17 10 -61 -27 -61 -51 0 -10 -4 -21 -10 -24 -15 -9 -12 61 3
74 22 17 13 51 -17 66 -15 8 -37 26 -48 40 -11 14 -28 25 -39 25 -10 0 -19 4
-19 9 0 4 -11 6 -24 4 -16 -3 -23 -10 -19 -19 5 -12 -13 -19 -39 -15 -4 0 -5
-6 -2 -13 8 -22 -44 -44 -89 -38 -29 3 -37 1 -37 -12 0 -9 -7 -16 -15 -16 -21
0 -19 -17 4 -30 14 -7 27 -6 46 4 21 11 33 12 51 4 13 -6 24 -16 24 -21 0 -5
-7 -4 -15 3 -10 9 -22 9 -42 2 -18 -7 -21 -11 -10 -11 9 -1 17 -6 17 -12 0 -6
18 -9 48 -8 43 3 47 2 50 -21 2 -14 -1 -20 -5 -15 -4 6 -19 11 -33 13 -15 1
-20 -1 -13 -6 7 -4 10 -19 8 -35 -4 -17 -1 -27 7 -27 9 0 9 -3 0 -12 -9 -9 -7
-14 6 -24 16 -13 16 -13 -1 -14 -11 0 -15 -4 -11 -12 5 -7 2 -9 -8 -6 -8 4
-33 -4 -54 -18 -23 -13 -32 -24 -22 -24 9 0 18 5 20 12 5 15 144 19 171 6 13
-7 32 -2 67 16 40 21 63 26 117 25 80 -2 117 -10 120 -25 1 -7 -6 -10 -17 -7
-11 3 -20 0 -20 -6 0 -6 -4 -11 -10 -11 -5 0 -7 7 -4 15 8 19 -3 19 -23 -1
-10 -10 -25 -13 -41 -9 -19 5 -23 3 -19 -9 4 -11 -1 -18 -18 -22 -41 -10 -47
5 -13 37 27 24 29 29 13 28 -31 -1 -80 -23 -83 -36 -1 -7 2 -13 8 -13 5 0 10
-4 10 -10 0 -5 -18 -10 -39 -10 -29 0 -51 -9 -82 -32 -93 -72 -79 -179 32
-259 l30 -21 39 31 c21 17 47 31 57 31 10 0 31 18 46 40 24 34 33 40 60 37 30
-2 32 0 30 27 -2 27 -1 27 12 10 13 -18 14 -17 25 11 7 17 12 44 13 62 0 18 3
30 5 28 3 -3 11 7 19 22 11 21 11 28 1 35 -9 5 -7 8 7 8 18 1 17 2 -4 11 -13
5 -21 12 -18 15 3 3 19 -2 36 -11 33 -17 42 -29 14 -18 -17 7 -17 5 0 -20 10
-16 15 -36 12 -46 -4 -14 1 -20 19 -23 14 -3 29 -1 35 5 5 5 51 12 103 15 98
5 118 15 117 57 0 12 -3 14 -6 7 -4 -10 -9 -10 -24 4 -12 11 -27 14 -44 10
-14 -4 -25 -2 -25 4 0 5 9 10 20 10 11 0 20 5 20 11 0 6 -8 8 -19 4 -15 -4
-19 -2 -16 12 2 10 4 21 4 25 1 11 42 0 60 -16 22 -20 108 -56 133 -56 18 0
19 2 7 16 -13 15 -11 16 16 11 17 -3 40 -8 53 -12 21 -7 23 -5 16 21 -4 16
-11 33 -15 39 -13 14 -11 25 6 25 8 0 15 -6 15 -14 0 -22 40 -66 61 -66 16 0
18 -5 13 -27 -13 -61 -16 -65 -27 -54 -18 18 -28 12 -15 -9 7 -11 19 -21 27
-22 16 -3 61 36 61 52 0 16 17 11 24 -6 3 -8 10 -13 15 -9 6 3 22 3 36 -1 24
-6 26 -10 21 -39 -7 -36 3 -49 46 -60 19 -5 32 -2 44 10 10 10 19 12 23 7 8
-14 51 -4 78 16 27 21 37 77 17 96 -8 8 -15 26 -16 40 -2 25 -18 38 -18 14 0
-6 -2 -9 -5 -6 -8 8 6 39 15 33 4 -3 10 4 13 15 3 12 14 20 25 20 26 0 35 14
27 40 -8 25 -35 26 -35 1 0 -21 -26 -48 -32 -32 -1 5 -16 12 -33 15 -16 4 -24
3 -17 0 10 -5 10 -9 1 -20 -6 -8 -15 -12 -19 -9 -5 3 -12 0 -16 -6 -4 -7 -3
-9 4 -5 6 3 14 1 18 -5 4 -7 3 -9 -4 -5 -6 3 -20 -3 -31 -15 l-20 -21 5 23 c2
13 2 18 -2 12 -8 -18 -31 -16 -46 5 -8 11 -26 17 -45 17 -31 0 -49 14 -20 16
23 1 49 7 54 13 4 3 11 -2 18 -11 11 -15 14 -15 38 3 15 10 27 25 27 32 0 6 9
12 20 12 18 0 19 3 9 21 -9 18 -17 20 -47 16 -19 -4 -38 -10 -41 -15 -17 -24
-41 -20 -56 8 -18 36 -26 37 -51 9 l-19 -22 28 7 c17 4 26 3 23 -3 -3 -5 -25
-12 -48 -16 l-42 -7 35 -29 34 -29 -32 16 c-34 16 -53 12 -53 -11 0 -22 -27
-25 -49 -6 -21 18 -29 61 -12 61 4 0 6 11 3 25 -2 14 -8 25 -13 25 -5 0 -9 4
-9 8 0 8 71 9 95 2 17 -5 45 11 45 26 0 8 5 14 10 14 6 0 10 -3 10 -7 0 -5 12
-9 27 -10 15 0 33 -9 40 -19 11 -15 16 -16 38 -4 20 11 30 11 52 1 14 -7 29
-8 32 -4 3 4 20 9 36 10 17 2 24 0 18 -3 -9 -4 -10 -11 -3 -25 12 -21 1 -26
-18 -7 -14 14 -16 0 -3 -20 6 -10 22 -11 59 -6 43 5 52 4 52 -9 0 -8 7 -17 15
-21 11 -4 14 -13 9 -32 -6 -24 -5 -25 14 -15 12 6 25 11 29 10 4 -1 21 -1 37
0 23 1 27 5 23 21 -3 11 -1 36 3 55 7 29 5 35 -6 31 -7 -3 -13 -2 -13 2 6 36
-2 42 -43 37 -24 -3 -37 -2 -30 1 6 3 12 12 12 20 0 8 6 14 14 14 24 0 28 18
12 42 -16 22 -20 19 -17 -14 1 -10 -3 -18 -8 -18 -6 0 -11 8 -11 19 0 14 -10
20 -44 24 -25 4 -60 16 -78 27 -35 21 -132 28 -143 10 -3 -5 -14 -10 -24 -10
-18 0 -71 -52 -71 -69 0 -5 -9 -11 -20 -14 -13 -3 -20 0 -20 9 0 18 -15 18
-34 -1 -19 -19 -32 -19 -40 0 -4 12 -14 14 -43 9 -21 -4 -40 -10 -43 -15 -3
-4 -21 -12 -40 -17 -25 -7 -29 -10 -13 -11 16 -1 21 -6 16 -16 -3 -9 2 -24 12
-35 10 -11 15 -26 12 -34 -4 -9 -3 -18 2 -20 4 -3 8 -21 9 -41 l1 -37 -20 24
c-11 13 -18 17 -14 11 3 -7 3 -18 0 -24 -8 -12 -45 18 -45 37 0 7 -9 16 -20
19 -11 3 -20 14 -20 24 0 9 -6 23 -12 30 -11 12 -9 13 7 6 27 -10 95 -14 95
-6 0 4 -17 13 -37 21 -21 8 -42 17 -47 19 -5 2 -6 -1 -3 -6 4 -6 -10 -13 -33
-17 -40 -6 -56 -25 -22 -27 9 0 12 -3 5 -5 -7 -3 -22 0 -33 6 -25 13 -42 4
-20 -10 12 -8 11 -10 -6 -10 -11 0 -28 8 -37 18 -20 22 -23 56 -4 50 6 -3 12
-10 12 -16 0 -20 12 -22 48 -7 21 8 37 22 37 30 0 10 11 13 45 11 34 -2 45 1
45 12 0 10 -8 13 -24 10 -16 -3 -27 0 -30 9 -3 8 0 13 7 12 6 -1 23 3 37 9 21
10 13 11 -46 9 -40 -1 -70 -6 -67 -11 3 -4 -4 -5 -16 -1 -32 10 -39 -21 -11
-51 30 -31 13 -31 -30 1 -18 13 -37 22 -41 19 -5 -3 -9 4 -9 15 0 12 -5 21
-11 21 -6 0 -9 6 -6 14 4 9 -3 16 -16 20 -42 11 -67 6 -89 -19 -21 -25 -58
-34 -58 -15 0 6 7 10 15 10 8 0 15 4 15 10 0 13 -93 -17 -106 -35 -13 -17 -39
-21 -29 -4 4 6 -2 17 -14 25 -18 13 -30 44 -16 44 8 0 49 -24 55 -32 10 -13
51 4 46 18 -3 7 1 19 8 26 7 7 11 18 9 23 -2 6 6 11 17 12 11 1 20 -2 20 -8 0
-5 5 -9 11 -9 5 0 7 5 4 10 -3 6 1 10 9 10 10 0 16 9 16 25 0 14 3 25 8 25 15
-1 42 -28 42 -44 0 -19 2 -19 34 -5 20 9 29 9 41 -1 13 -11 15 -9 15 10 0 16
4 21 16 16 27 -10 54 3 54 27 0 32 -15 51 -34 44 -11 -5 -20 1 -28 18 -10 22
-8 29 12 50 l23 25 31 -19 c47 -30 126 -58 179 -65 26 -4 59 -11 74 -17 44
-16 36 -4 -14 23 -47 25 -113 43 -143 39 -27 -3 -241 118 -287 162 -23 23 -51
45 -61 49 -25 10 -72 9 -72 -1z m220 -195 c0 -3 -7 -3 -15 0 -8 4 -15 13 -15
21 0 12 2 12 15 -1 8 -8 15 -17 15 -20z m-136 -121 c-4 -8 -8 -15 -10 -15 -2
0 -4 7 -4 15 0 8 4 15 10 15 5 0 7 -7 4 -15z m-24 -10 c0 -8 -4 -15 -10 -15
-5 0 -10 7 -10 15 0 8 5 15 10 15 6 0 10 -7 10 -15z m-290 -35 c0 -5 -2 -10
-4 -10 -3 0 -8 5 -11 10 -3 6 -1 10 4 10 6 0 11 -4 11 -10z m387 -76 c-3 -3
-12 -4 -19 -1 -8 3 -5 6 6 6 11 1 17 -2 13 -5z m-386 -33 c-15 -9 -51 -3 -51
9 0 4 12 5 26 2 21 -4 25 -2 19 9 -7 12 -5 12 6 1 12 -11 12 -14 0 -21z m447
-9 c2 -7 -2 -10 -12 -6 -9 3 -16 11 -16 16 0 13 23 5 28 -10z m-654 -1 c3 -5
-5 -11 -19 -13 -28 -6 -35 8 -7 15 9 3 18 5 19 6 1 0 4 -3 7 -8z m94 -27 c13
-13 30 -20 37 -17 10 3 13 -2 10 -17 -2 -13 -7 -25 -9 -28 -7 -6 -36 24 -36
38 0 6 -4 9 -9 6 -4 -3 -22 5 -40 18 -21 15 -27 26 -19 29 19 6 40 -3 66 -29z
m42 10 c0 -2 -7 -4 -15 -4 -8 0 -15 4 -15 10 0 5 7 7 15 4 8 -4 15 -8 15 -10z
m1000 -18 c0 -3 -4 -8 -10 -11 -5 -3 -10 -1 -10 4 0 6 5 11 10 11 6 0 10 -2
10 -4z m320 -16 c0 -5 -2 -10 -4 -10 -3 0 -8 5 -11 10 -3 6 -1 10 4 10 6 0 11
-4 11 -10z m-1243 -20 c22 -27 14 -30 -22 -9 -19 12 -35 23 -35 24 0 11 47 -2
57 -15z m21 -70 c15 0 15 -2 2 -10 -13 -8 -12 -10 2 -10 17 0 17 -1 0 -20 -14
-18 -18 -18 -20 -5 -2 8 -11 14 -20 13 -9 -2 -16 3 -14 10 1 6 -4 12 -12 12
-7 0 -20 8 -27 17 -12 15 -12 16 4 10 18 -7 25 17 7 28 -5 3 -10 11 -10 17 0
6 16 -5 35 -25 20 -21 44 -37 53 -37z m458 45 c15 -13 26 -27 23 -29 -3 -3
-18 8 -34 24 -35 36 -29 39 11 5z m-365 -12 c-12 -20 -14 -14 -5 12 4 9 9 14
11 11 3 -2 0 -13 -6 -23z m565 -77 c9 -20 9 -26 -3 -30 -21 -8 -25 -7 -47 9
-20 15 -20 15 0 30 27 20 37 18 50 -9z m293 -37 c-4 -9 -6 -19 -2 -22 13 -13
-28 -18 -43 -6 -15 12 -14 14 7 20 23 7 23 7 2 8 -12 1 -25 6 -28 11 -4 7 8
10 33 8 33 -3 39 -6 31 -19z m191 -29 c0 -5 -4 -10 -9 -10 -6 0 -13 5 -16 10
-3 6 1 10 9 10 9 0 16 -4 16 -10z m-685 -19 c-3 -5 3 -12 12 -15 10 -3 3 -4
-15 -2 -24 2 -36 -2 -43 -15 -9 -18 -11 -18 -49 2 -22 12 -40 23 -40 25 0 3
22 2 49 -2 31 -4 51 -2 55 5 4 6 14 11 22 11 8 0 13 -4 9 -9z m655 -6 c10 -12
10 -15 -3 -15 -9 0 -25 -10 -37 -22 -24 -26 -59 -33 -66 -14 -3 8 3 24 13 34
32 34 73 41 93 17z m-955 -24 c-3 -6 -11 -11 -16 -11 -5 0 -4 6 3 14 14 16 24
13 13 -3z m735 -1 c0 -5 -2 -10 -4 -10 -3 0 -8 5 -11 10 -3 6 -1 10 4 10 6 0
11 -4 11 -10z m-695 -10 c3 -5 1 -10 -4 -10 -6 0 -11 5 -11 10 0 6 2 10 4 10
3 0 8 -4 11 -10z m975 0 c0 -5 -4 -10 -10 -10 -5 0 -10 5 -10 10 0 6 5 10 10
10 6 0 10 -4 10 -10z m-1080 -20 c-27 -21 -40 -25 -40 -12 0 8 38 29 55 31 6
0 -1 -8 -15 -19z m780 6 c0 -3 -4 -8 -10 -11 -5 -3 -10 -1 -10 4 0 6 5 11 10
11 6 0 10 -2 10 -4z m297 -38 c-3 -7 -5 -2 -5 12 0 14 2 19 5 13 2 -7 2 -19 0
-25z m-1267 8 c0 -2 -7 -7 -16 -10 -8 -3 -12 -2 -9 4 6 10 25 14 25 6z m99
-50 c10 -12 6 -14 -20 -13 -59 3 -46 -39 15 -47 48 -6 56 -13 24 -21 -39 -10
-103 -2 -100 13 1 6 -6 12 -15 13 -11 0 -13 3 -5 6 6 2 12 12 12 21 0 32 69
53 89 28z"/>
<path d="M950 1960 c0 -5 5 -10 10 -10 6 0 10 5 10 10 0 6 -4 10 -10 10 -5 0
-10 -4 -10 -10z"/>
<path d="M1370 1839 c0 -5 5 -7 10 -4 6 3 10 8 10 11 0 2 -4 4 -10 4 -5 0 -10
-5 -10 -11z"/>
<path d="M2874 2593 c-18 -9 -41 -32 -53 -53 -26 -46 -26 -50 -2 -50 30 0 50
11 45 24 -2 6 5 22 16 34 17 18 28 21 60 16 45 -7 48 -3 23 26 -21 24 -46 25
-89 3z"/>
<path d="M4605 2570 c3 -5 8 -10 11 -10 2 0 4 5 4 10 0 6 -5 10 -11 10 -5 0
-7 -4 -4 -10z"/>
<path d="M6510 2551 c0 -10 24 -21 43 -21 7 0 3 7 -7 15 -22 17 -36 19 -36 6z"/>
<path d="M4029 2548 c0 -2 -3 -18 -6 -37 -3 -24 -1 -32 9 -29 16 5 24 68 9 68
-6 0 -11 -1 -12 -2z"/>
<path d="M4082 2499 c1 -13 8 -23 13 -21 15 3 12 35 -3 40 -9 3 -13 -3 -10
-19z"/>
<path d="M4461 2496 c-16 -19 -6 -35 11 -18 18 18 42 15 72 -9 23 -18 28 -19
46 -6 29 20 9 33 -61 42 -44 5 -58 4 -68 -9z"/>
<path d="M6378 2481 c-10 -10 -18 -21 -18 -25 0 -14 68 -76 83 -76 8 0 20 -7
27 -15 19 -22 28 -18 44 18 11 28 11 34 -2 50 -8 9 -21 17 -29 17 -7 0 -13 4
-13 9 0 9 -56 42 -69 40 -3 0 -14 -8 -23 -18z"/>
<path d="M2480 2440 c0 -12 -5 -17 -14 -14 -8 3 -17 0 -21 -6 -5 -8 3 -11 26
-9 46 4 51 7 39 30 -14 25 -30 25 -30 -1z"/>
<path d="M2560 2431 c0 -23 -32 -39 -81 -39 -28 -1 -54 -3 -56 -6 -3 -3 1 -20
10 -38 15 -30 15 -34 0 -45 -9 -7 -21 -14 -27 -16 -7 -3 -2 -13 10 -25 20 -19
23 -19 44 -5 17 12 19 17 9 24 -11 6 -9 13 9 32 12 13 22 29 22 36 0 7 5 9 10
6 6 -4 8 -10 5 -15 -3 -5 0 -12 6 -15 6 -4 8 -18 5 -31 -5 -20 -1 -28 25 -42
29 -16 30 -19 25 -67 l-6 -50 120 -1 c100 0 122 -3 139 -18 16 -15 18 -22 8
-37 -16 -26 -2 -35 36 -21 19 7 52 12 75 12 l41 0 -21 35 c-16 28 -25 34 -40
29 -19 -6 -19 -5 -4 19 16 24 16 25 -11 30 -15 3 -32 2 -38 -3 -10 -8 -78 -20
-70 -12 6 6 -21 32 -34 32 -13 0 -15 17 -3 22 5 2 12 15 16 31 6 25 4 27 -22
27 -16 0 -32 3 -35 6 -4 4 -29 14 -56 24 -51 17 -121 59 -121 73 0 14 29 7 42
-11 13 -18 109 -62 134 -62 19 0 18 25 -1 40 -11 10 -13 15 -4 20 6 4 -16 20
-53 39 -64 31 -108 40 -108 22z"/>
<path d="M206 2421 c-3 -5 1 -11 9 -14 9 -4 12 -1 8 9 -6 16 -10 17 -17 5z"/>
<path d="M2388 2409 c-10 -5 -18 -17 -18 -25 0 -8 -4 -12 -10 -9 -5 3 -10 2
-10 -4 0 -6 -11 -6 -32 0 -49 14 -46 2 6 -20 46 -20 75 -19 77 3 0 6 2 23 3
39 1 15 2 27 1 27 0 0 -8 -5 -17 -11z"/>
<path d="M2771 2394 c-27 -31 -24 -60 6 -57 13 2 23 -4 26 -15 3 -12 8 -8 17
16 6 17 18 32 26 32 23 0 16 16 -13 31 -16 7 -30 15 -34 16 -3 2 -15 -8 -28
-23z"/>
<path d="M1585 2400 l-30 -5 25 -18 c13 -9 28 -17 33 -17 9 0 37 25 37 33 0 9
-35 13 -65 7z"/>
<path d="M4096 2401 c-9 -13 22 -41 45 -41 24 0 25 26 2 34 -10 3 -23 8 -30
12 -6 3 -14 1 -17 -5z"/>
<path d="M4270 2386 c0 -7 -7 -19 -15 -26 -25 -21 -17 -32 10 -14 24 16 35 54
15 54 -5 0 -10 -6 -10 -14z"/>
<path d="M4710 2381 c0 -12 9 -20 25 -23 31 -6 37 -1 22 23 -15 25 -47 25 -47
0z"/>
<path d="M280 2380 c0 -5 5 -10 11 -10 5 0 7 5 4 10 -3 6 -8 10 -11 10 -2 0
-4 -4 -4 -10z"/>
<path d="M3115 2340 c-3 -5 -2 -10 4 -10 5 0 13 5 16 10 3 6 2 10 -4 10 -5 0
-13 -4 -16 -10z"/>
<path d="M2915 2324 c-10 -8 -17 -16 -14 -18 23 -21 86 -56 102 -56 19 0 19 1
4 18 -10 10 -17 24 -17 30 0 6 -13 17 -28 25 -24 12 -32 12 -47 1z"/>
<path d="M22 2310 c0 -14 2 -19 5 -12 2 6 2 18 0 25 -3 6 -5 1 -5 -13z"/>
<path d="M4300 2290 c0 -5 4 -10 9 -10 6 0 13 5 16 10 3 6 -1 10 -9 10 -9 0
-16 -4 -16 -10z"/>
<path d="M55 2270 c3 -5 11 -10 16 -10 6 0 7 5 4 10 -3 6 -11 10 -16 10 -6 0
-7 -4 -4 -10z"/>
<path d="M125 2270 c27 -12 35 -12 35 0 0 6 -12 10 -27 9 -25 0 -26 -1 -8 -9z"/>
<path d="M1663 2257 c9 -8 17 -19 17 -25 0 -17 16 -23 41 -14 l23 9 -25 15
c-13 9 -35 19 -49 22 -23 6 -23 6 -7 -7z"/>
<path d="M2810 2250 c0 -5 5 -10 11 -10 5 0 7 5 4 10 -3 6 -8 10 -11 10 -2 0
-4 -4 -4 -10z"/>
<path d="M3060 2250 c0 -12 40 -33 48 -25 4 4 -2 13 -12 21 -23 16 -36 18 -36
4z"/>
<path d="M105 2240 c-3 -5 -2 -10 4 -10 5 0 13 5 16 10 3 6 2 10 -4 10 -5 0
-13 -4 -16 -10z"/>
<path d="M76 2211 c-4 -7 -5 -15 -2 -18 9 -9 19 4 14 18 -4 11 -6 11 -12 0z"/>
<path d="M1800 2196 c-9 -12 -7 -17 9 -28 14 -9 19 -19 15 -35 -4 -14 -2 -23
5 -23 6 0 20 -9 30 -19 18 -18 24 -18 81 -6 33 7 63 15 66 18 11 11 -52 56
-95 68 -25 7 -55 18 -66 26 -25 16 -30 16 -45 -1z"/>
<path d="M3 2185 c-3 -9 -3 -18 -1 -21 3 -3 8 4 11 16 6 23 -1 27 -10 5z"/>
<path d="M2470 2162 c0 -5 7 -13 16 -16 10 -4 14 -1 12 6 -5 15 -28 23 -28 10z"/>
<path d="M1000 2150 c0 -13 20 -13 40 0 12 8 9 10 -12 10 -16 0 -28 -4 -28
-10z"/>
<path d="M2245 2140 c-3 -5 -16 -10 -28 -11 -18 -1 -16 -2 8 -10 16 -4 39 -6
51 -3 17 4 23 0 28 -21 4 -14 11 -23 16 -20 13 8 -14 61 -35 69 -23 8 -33 8
-40 -4z"/>
<path d="M2530 2120 c12 -8 11 -10 -7 -10 -18 0 -23 -6 -23 -25 0 -30 25 -34
33 -5 6 22 36 27 55 8 7 -7 12 -9 12 -4 0 13 -30 37 -39 31 -5 -3 -12 -1 -16
5 -3 5 -12 10 -18 10 -7 0 -6 -4 3 -10z"/>
<path d="M3153 2122 c-29 -4 -29 -10 2 -52 29 -40 31 -50 8 -50 -9 0 -14 -2
-11 -5 3 -4 18 -3 32 1 33 8 51 38 37 62 -6 9 -11 13 -11 7 0 -5 -8 1 -18 15
-11 17 -24 24 -39 22z"/>
<path d="M2650 2106 c-19 -19 -9 -22 70 -22 66 1 77 3 63 14 -9 6 -28 13 -42
13 -14 1 -38 2 -54 3 -15 1 -32 -3 -37 -8z"/>
<path d="M2001 2074 c-27 -31 -26 -34 4 -34 14 0 25 5 25 10 0 6 9 10 20 10
27 0 25 14 -4 28 -20 9 -27 7 -45 -14z"/>
<path d="M2470 2075 c0 -8 4 -15 10 -15 5 0 7 7 4 15 -4 8 -8 15 -10 15 -2 0
-4 -7 -4 -15z"/>
<path d="M1151 2060 c-10 -5 -8 -9 4 -14 23 -8 35 -8 35 3 0 13 -25 20 -39 11z"/>
<path d="M2778 2053 c6 -2 18 -2 25 0 6 3 1 5 -13 5 -14 0 -19 -2 -12 -5z"/>
<path d="M3115 2050 c3 -5 11 -10 16 -10 6 0 7 5 4 10 -3 6 -11 10 -16 10 -6
0 -7 -4 -4 -10z"/>
<path d="M1760 2045 c0 -3 8 -14 17 -25 19 -22 38 -26 48 -10 3 6 -1 7 -9 4
-10 -4 -16 -1 -16 9 0 8 -7 18 -16 21 -19 7 -24 8 -24 1z"/>
<path d="M3258 2033 c7 -3 16 -2 19 1 4 3 -2 6 -13 5 -11 0 -14 -3 -6 -6z"/>
<path d="M1012 2014 c4 -21 22 -23 26 -1 2 10 -3 17 -13 17 -10 0 -15 -6 -13
-16z"/>
<path d="M2935 2023 c-16 -3 -32 -8 -35 -12 -6 -8 -79 -51 -87 -51 -3 0 -3 8
1 18 4 11 0 9 -10 -5 -9 -13 -24 -23 -33 -24 -10 0 -7 -4 9 -11 14 -6 40 -18
59 -26 26 -12 37 -13 52 -4 10 7 32 12 49 12 16 0 30 4 30 10 0 5 11 12 24 16
13 3 27 15 29 26 5 16 12 19 31 16 14 -3 26 -1 26 4 0 6 -16 8 -35 6 -27 -3
-34 -1 -32 12 2 16 -25 21 -78 13z m0 -23 c3 -5 1 -10 -4 -10 -6 0 -11 5 -11
10 0 6 2 10 4 10 3 0 8 -4 11 -10z"/>
<path d="M2350 2010 c0 -5 7 -7 15 -4 8 4 15 8 15 10 0 2 -7 4 -15 4 -8 0 -15
-4 -15 -10z"/>
<path d="M2489 2005 c-1 -5 -2 -14 -3 -20 0 -5 -7 -20 -14 -32 -7 -13 -8 -23
-3 -23 5 0 3 -12 -5 -27 -7 -16 -14 -35 -15 -43 0 -10 -2 -11 -6 -2 -5 13 -43
17 -43 4 0 -5 10 -13 23 -19 18 -9 25 -7 38 11 9 11 15 29 13 39 -1 9 2 17 7
17 5 0 9 -12 10 -27 0 -25 1 -26 9 -8 l9 20 1 -20 c2 -11 2 -23 1 -27 0 -4 7
-4 17 -1 15 6 15 5 3 -10 -8 -10 -9 -17 -3 -17 6 0 14 5 17 10 3 6 14 10 23
10 15 0 8 -7 -35 -35 -2 -1 -6 -16 -9 -33 l-6 -32 53 3 c53 2 54 1 57 -27 4
-28 -9 -64 -34 -96 -20 -27 -24 -50 -9 -50 9 0 15 10 15 25 0 24 3 25 59 25
60 0 121 15 121 31 0 13 -13 11 -38 -7 -13 -9 -25 -14 -28 -11 -7 7 35 32 88
51 34 13 45 22 41 33 -5 13 -3 13 16 3 13 -6 33 -9 46 -6 13 3 25 1 27 -4 2
-6 17 -13 33 -16 16 -3 33 -10 36 -16 7 -10 56 -21 94 -19 11 0 22 -5 26 -11
8 -13 55 -19 92 -12 33 7 35 17 5 32 -15 7 -18 11 -8 12 8 0 23 7 34 15 18 13
18 15 -4 60 -22 45 -22 47 -5 86 10 21 22 39 27 39 4 0 8 11 8 25 0 31 -9 31
-40 3 -17 -16 -36 -22 -61 -22 -23 1 -40 -4 -43 -12 -3 -8 -12 -11 -20 -8 -8
3 -17 1 -21 -5 -3 -6 -20 -11 -38 -11 -28 0 -29 -1 -12 -13 26 -20 11 -39 -20
-27 -14 5 -25 6 -25 3 0 -4 -5 -2 -12 5 -17 17 -28 15 -21 -5 5 -14 0 -12 -20
6 -20 18 -28 21 -31 10 -2 -8 -7 -21 -9 -29 -3 -8 -6 -3 -6 12 -1 18 6 32 19
40 27 17 26 40 -2 36 -15 -2 -22 -9 -20 -20 1 -9 -6 -19 -17 -23 -12 -4 -18
-12 -14 -21 4 -10 -3 -14 -26 -14 -17 0 -31 -4 -31 -10 0 -5 5 -10 11 -10 5 0
7 -5 4 -10 -4 -6 -1 -19 6 -28 9 -11 9 -13 1 -6 -7 5 -21 27 -31 47 l-19 37
27 -6 26 -5 -27 23 c-16 13 -28 28 -28 33 0 6 -11 15 -25 22 -20 9 -25 9 -24
0 3 -27 -2 -36 -17 -30 -14 5 -15 3 -4 -17 9 -17 14 -20 20 -9 6 9 11 2 18
-22 10 -37 6 -59 -11 -59 -6 0 -27 -15 -46 -32 l-35 -33 32 39 c32 40 33 56 4
56 -12 0 -13 3 -4 12 8 8 15 8 27 -2 13 -11 15 -10 10 3 -6 15 -44 27 -97 30
-33 2 -31 17 3 34 13 7 18 13 11 13 -9 0 -10 11 -6 40 7 40 6 40 -26 40 -31 0
-87 25 -102 45 -5 7 -8 7 -9 0z m651 -165 c0 -5 -4 -10 -10 -10 -5 0 -10 5
-10 10 0 6 5 10 10 10 6 0 10 -4 10 -10z m-175 -120 c3 -5 -1 -10 -10 -10 -9
0 -13 5 -10 10 3 6 8 10 10 10 2 0 7 -4 10 -10z"/>
<path d="M2258 1980 c-4 -14 -8 -37 -8 -52 0 -34 -16 -45 -25 -18 -8 24 -28
22 -33 -3 -2 -8 6 -21 18 -27 17 -9 26 -7 51 11 17 12 26 24 21 28 -6 3 -12
24 -14 46 -3 35 -4 37 -10 15z"/>
<path d="M1405 1980 c-8 -13 5 -13 25 0 13 8 13 10 -2 10 -9 0 -20 -4 -23 -10z"/>
<path d="M3640 1973 c0 -6 7 -16 15 -23 11 -9 15 -9 15 -1 0 7 5 9 10 6 6 -3
10 -1 10 5 0 7 -6 10 -14 7 -7 -3 -19 0 -25 6 -8 8 -11 8 -11 0z"/>
<path d="M3050 1946 c0 -2 9 -6 20 -9 11 -3 18 -1 14 4 -5 9 -34 13 -34 5z"/>
<path d="M2118 1913 c7 -3 16 -2 19 1 4 3 -2 6 -13 5 -11 0 -14 -3 -6 -6z"/>
<path d="M1765 1902 c-31 -6 -39 -19 -16 -25 11 -3 28 1 37 8 20 14 8 23 -21
17z"/>
<path d="M2017 1885 c-27 -7 -53 -17 -60 -24 -6 -6 -25 -11 -41 -12 -17 0 -25
-3 -17 -6 10 -4 3 -15 -25 -39 -21 -19 -45 -34 -52 -34 -16 0 -105 -60 -99
-67 5 -5 83 14 107 27 9 4 31 11 50 15 35 7 105 61 105 80 0 6 19 13 42 16 39
5 72 19 45 19 -7 0 -12 5 -12 10 0 6 17 10 37 10 20 0 34 3 30 6 -12 12 -62
12 -110 -1z"/>
<path d="M2381 1864 c0 -11 3 -14 6 -6 3 7 2 16 -1 19 -3 4 -6 -2 -5 -13z"/>
<path d="M2650 1859 c0 -11 4 -18 10 -14 5 3 7 12 3 20 -7 21 -13 19 -13 -6z"/>
<path d="M14 1856 c-10 -8 -16 -17 -13 -20 3 -3 14 3 24 14 21 23 17 26 -11 6z"/>
<path d="M2831 1834 c0 -11 3 -14 6 -6 3 7 2 16 -1 19 -3 4 -6 -2 -5 -13z"/>
<path d="M1575 1810 c-7 -11 18 -24 35 -18 6 2 1 9 -9 15 -13 8 -22 9 -26 3z"/>
<path d="M770 1791 c0 -15 39 -19 51 -5 9 11 6 14 -20 14 -17 0 -31 -4 -31 -9z"/>
<path d="M2338 1773 c-10 -2 -18 -9 -18 -14 0 -14 16 -11 30 6 7 8 11 14 9 14
-2 -1 -12 -3 -21 -6z"/>
<path d="M2041 1755 c-18 -8 -50 -29 -70 -45 -20 -17 -42 -35 -48 -41 -16 -12
-17 -93 -1 -122 6 -12 18 -27 27 -33 11 -9 12 -15 4 -25 -6 -8 -7 -22 -2 -34
13 -33 11 -35 -41 -35 -38 0 -50 -4 -50 -15 0 -10 -10 -15 -31 -15 -29 0 -30
-2 -24 -30 5 -25 3 -30 -12 -30 -10 0 -26 -9 -36 -20 -9 -11 -25 -20 -36 -20
-10 0 -21 -7 -25 -15 -3 -8 -12 -15 -21 -15 -24 0 -29 29 -9 51 18 20 18 21
-1 32 -66 37 -81 -6 -27 -75 9 -11 10 -18 3 -23 -6 -3 -11 0 -11 8 0 13 -20
27 -36 27 -2 0 -2 -11 2 -25 5 -19 2 -25 -10 -25 -15 0 -20 18 -19 74 0 15 -6
17 -39 12 -43 -7 -44 -6 -23 34 16 31 6 80 -15 80 -7 0 -6 6 2 14 11 12 17 12
41 -2 15 -9 27 -20 27 -24 0 -4 5 -8 10 -8 6 0 10 9 10 21 0 16 5 19 23 15 19
-5 19 -5 -3 6 -35 17 -38 25 -32 71 4 34 3 39 -11 34 -40 -15 -117 -19 -132
-7 -19 16 -19 34 0 26 25 -9 17 12 -14 33 -29 21 -76 27 -98 13 -7 -4 -19 -25
-28 -46 -12 -29 -19 -36 -28 -27 -16 16 -31 14 -45 -9 -8 -13 -9 -26 -3 -37 6
-10 12 -30 15 -44 4 -16 42 -61 96 -113 50 -47 88 -86 85 -86 -10 0 -69 43
-73 52 -5 12 -32 10 -32 -2 0 -14 23 -35 120 -108 14 -11 46 -29 72 -40 26
-11 62 -35 80 -52 18 -17 52 -40 76 -52 38 -19 47 -20 77 -9 19 7 39 10 45 6
5 -3 21 2 36 11 24 17 27 17 36 1 14 -25 50 -21 99 13 24 16 50 30 57 30 28 0
122 84 137 122 17 43 16 43 55 23 26 -13 35 -13 86 0 97 25 123 54 90 98 -8
10 -13 34 -11 53 2 19 0 34 -4 34 -9 0 -51 -56 -51 -68 0 -37 -110 -59 -134
-27 -6 8 -47 23 -91 33 -79 19 -80 19 -89 55 -8 32 -6 40 14 62 23 25 24 53 4
138 -6 25 -4 27 25 27 21 0 31 5 31 15 0 19 17 19 35 1 19 -18 8 -54 -19 -59
-17 -4 -16 -5 6 -6 14 0 29 5 31 12 3 6 6 2 6 -10 1 -14 -5 -23 -14 -23 -8 0
-15 -4 -15 -10 0 -12 -5 -11 90 -14 l76 -2 28 40 c16 23 22 35 13 27 -14 -11
-18 -11 -23 5 -37 115 -131 163 -233 119z m-11 -401 c0 -8 -4 -12 -10 -9 -5 3
-10 10 -10 16 0 5 5 9 10 9 6 0 10 -7 10 -16z m-490 -65 c0 -6 -4 -7 -10 -4
-5 3 -10 11 -10 16 0 6 5 7 10 4 6 -3 10 -11 10 -16z m-75 -19 c3 -5 24 -10
46 -10 27 0 39 -4 39 -14 0 -8 -6 -17 -12 -19 -8 -3 -6 -6 5 -6 23 -1 22 -31
-2 -31 -20 0 -107 45 -116 61 -8 12 3 29 20 29 8 0 17 -4 20 -10z m309 -115
c-6 -16 -34 -21 -34 -7 0 13 11 22 26 22 8 0 11 -6 8 -15z m181 -5 c3 -5 1
-10 -4 -10 -6 0 -11 5 -11 10 0 6 2 10 4 10 3 0 8 -4 11 -10z m-197 -53 c3
-21 -1 -27 -15 -27 -11 0 -27 6 -37 13 -17 13 -17 14 -1 31 24 24 49 16 53
-17z"/>
<path d="M2480 1745 c-14 -16 -3 -20 19 -6 8 5 9 11 3 15 -5 3 -15 -1 -22 -9z"/>
<path d="M6980 1750 c0 -5 7 -10 15 -10 8 0 15 5 15 10 0 6 -7 10 -15 10 -8 0
-15 -4 -15 -10z"/>
<path d="M795 1720 c-3 -5 -1 -10 4 -10 6 0 11 5 11 10 0 6 -2 10 -4 10 -3 0
-8 -4 -11 -10z"/>
<path d="M1565 1709 c-4 -6 -5 -12 -2 -15 2 -3 7 2 10 11 7 17 1 20 -8 4z"/>
<path d="M1918 1703 c7 -3 16 -2 19 1 4 3 -2 6 -13 5 -11 0 -14 -3 -6 -6z"/>
<path d="M36 1684 c-26 -25 -18 -36 9 -12 14 12 25 23 25 25 0 9 -20 1 -34
-13z"/>
<path d="M660 1690 c-13 -8 -12 -10 3 -10 9 0 17 5 17 10 0 12 -1 12 -20 0z"/>
<path d="M880 1695 c0 -13 24 -55 32 -55 5 0 7 -4 4 -9 -13 -21 65 -29 82 -8
17 21 19 52 2 48 -8 -2 -22 -4 -30 -4 -8 0 -21 -5 -29 -11 -12 -9 -13 -8 -8 7
5 12 1 17 -13 17 -11 0 -20 5 -20 10 0 6 -4 10 -10 10 -5 0 -10 -2 -10 -5z"/>
<path d="M1487 1689 c7 -7 15 -10 18 -7 3 3 -2 9 -12 12 -14 6 -15 5 -6 -5z"/>
<path d="M1830 1675 c-42 -22 -43 -24 -17 -25 15 0 27 5 27 13 1 7 8 3 18 -9
17 -20 42 -22 42 -3 0 4 -6 6 -14 3 -7 -3 -16 2 -20 11 -5 13 -1 15 15 10 15
-5 20 -3 17 6 -7 21 -20 20 -68 -6z"/>
<path d="M4768 1693 c6 -2 18 -2 25 0 6 3 1 5 -13 5 -14 0 -19 -2 -12 -5z"/>
<path d="M4425 1680 c-3 -5 -1 -10 4 -10 6 0 11 5 11 10 0 6 -2 10 -4 10 -3 0
-8 -4 -11 -10z"/>
<path d="M4818 1679 c-2 -6 -16 -11 -31 -11 -15 0 -31 -6 -36 -12 -13 -16 -17
-49 -7 -65 6 -9 2 -19 -15 -32 -13 -9 -26 -17 -29 -17 -16 1 -18 -5 -9 -29 7
-19 7 -28 -3 -34 -19 -12 -29 0 -22 27 4 17 1 26 -10 30 -25 10 -19 23 9 18
20 -4 25 0 25 16 0 14 -4 19 -12 14 -6 -4 -17 1 -25 12 -11 15 -15 16 -22 5
-5 -8 -16 -11 -25 -8 -9 4 -16 2 -16 -2 0 -5 7 -11 15 -15 8 -3 15 -10 15 -16
0 -6 -4 -9 -9 -5 -13 8 -18 -24 -10 -63 8 -36 0 -45 -28 -35 -10 3 -15 3 -11
-2 4 -4 -2 -15 -14 -24 -20 -17 -19 -18 44 -35 36 -10 90 -16 120 -15 30 1 59
-1 65 -4 7 -4 15 -3 18 3 4 6 14 8 24 5 22 -7 107 19 129 38 10 9 28 17 42 19
14 1 23 7 22 12 -2 5 0 12 5 15 13 9 43 76 43 95 0 10 -9 16 -25 16 -14 0 -25
-4 -25 -9 0 -20 -31 -19 -70 2 -38 21 -41 21 -51 5 -15 -26 -26 -22 -27 10 0
49 -2 54 -16 49 -17 -7 -28 16 -20 38 4 8 4 15 1 15 -3 0 -7 -5 -9 -11z m22
-119 c0 -5 -5 -10 -11 -10 -5 0 -7 5 -4 10 3 6 8 10 11 10 2 0 4 -4 4 -10z
m160 -65 c10 -12 8 -16 -15 -25 -39 -15 -55 -12 -55 8 0 10 3 22 7 25 12 12
50 7 63 -8z m-350 -10 c0 -3 -9 -16 -20 -28 l-21 -21 5 24 c2 14 5 26 5 28 2
5 31 2 31 -3z m185 -5 c-3 -5 -11 -10 -16 -10 -6 0 -7 5 -4 10 3 6 11 10 16
10 6 0 7 -4 4 -10z m-75 -20 c0 -5 -4 -10 -10 -10 -5 0 -10 5 -10 10 0 6 5 10
10 10 6 0 10 -4 10 -10z"/>
<path d="M1455 1670 c-3 -5 -2 -10 4 -10 5 0 13 5 16 10 3 6 2 10 -4 10 -5 0
-13 -4 -16 -10z"/>
<path d="M3408 1673 c7 -3 16 -2 19 1 4 3 -2 6 -13 5 -11 0 -14 -3 -6 -6z"/>
<path d="M2970 1662 c0 -5 7 -13 16 -16 10 -4 14 -1 12 6 -5 15 -28 23 -28 10z"/>
<path d="M3944 1633 c-4 -10 -12 -32 -20 -50 -18 -39 -17 -43 1 -43 8 0 15 -4
15 -9 0 -5 9 -7 20 -4 11 3 26 0 33 -6 11 -8 13 0 12 44 -2 55 -16 85 -42 85
-7 0 -16 -8 -19 -17z m6 -73 c0 -5 -4 -10 -10 -10 -5 0 -10 5 -10 10 0 6 5 10
10 10 6 0 10 -4 10 -10z"/>
<path d="M492 1625 c-22 -12 -22 -13 -4 -17 22 -6 34 -66 19 -93 -4 -9 -7 -26
-5 -38 3 -19 6 -17 22 15 10 20 15 42 11 47 -3 6 1 11 9 11 9 0 16 5 16 10 0
15 26 12 39 -3 8 -11 5 -17 -16 -26 -22 -10 -24 -14 -12 -22 22 -14 46 -11 53
7 5 13 9 14 20 5 18 -15 58 -6 119 26 47 24 72 26 120 8 15 -6 17 -1 17 40 0
45 -1 47 -22 39 -36 -13 -308 -17 -308 -5 0 15 -50 12 -78 -4z"/>
<path d="M2984 1625 c10 -8 24 -11 29 -8 6 4 2 10 -9 14 -31 12 -40 9 -20 -6z"/>
<path d="M1830 1620 c-8 -5 -10 -10 -5 -10 6 0 17 5 25 10 8 5 11 10 5 10 -5
0 -17 -5 -25 -10z"/>
<path d="M3180 1605 c-11 -13 -15 -13 -21 -3 -7 10 -9 9 -9 -3 0 -9 -7 -22
-15 -29 -21 -17 -16 -74 7 -89 11 -7 29 -9 40 -5 13 4 18 2 14 -4 -3 -5 1 -12
9 -16 8 -3 15 -14 15 -25 0 -11 10 -27 22 -35 27 -19 88 -21 88 -3 0 7 10 18
22 26 21 13 21 14 3 27 -10 8 -15 14 -10 14 4 0 -5 11 -21 25 -25 21 -30 23
-44 10 -21 -19 -30 -19 -30 0 0 8 5 15 12 15 6 0 9 3 6 6 -4 3 -15 1 -26 -5
-15 -8 -21 -7 -25 4 -3 7 -1 16 6 19 7 2 2 5 -10 5 -26 1 -26 1 -14 34 12 32
-1 54 -19 32z"/>
<path d="M4210 1581 c0 -5 12 -11 28 -13 15 -3 34 -8 42 -12 11 -4 16 -1 17
11 1 14 -7 18 -43 20 -24 1 -44 -2 -44 -6z"/>
<path d="M4333 1583 c-25 -9 -13 -19 18 -15 22 3 27 7 18 13 -15 10 -18 10
-36 2z"/>
<path d="M4422 1582 c-6 -2 -12 -8 -12 -13 0 -6 5 -7 10 -4 6 4 17 1 25 -5 18
-15 20 -3 2 14 -7 7 -18 11 -25 8z"/>
<path d="M1740 1557 c0 -11 1 -18 3 -16 1 2 8 11 15 20 9 13 9 16 -3 16 -8 0
-15 -9 -15 -20z"/>
<path d="M4485 1560 c20 -22 39 -27 33 -8 -2 6 -15 15 -28 20 -23 9 -23 8 -5
-12z"/>
<path d="M4081 1546 c-13 -32 -8 -60 11 -54 14 5 17 25 8 58 l-7 25 -12 -29z"/>
<path d="M1813 1553 c-13 -2 -23 -8 -23 -12 0 -5 -23 -18 -51 -30 -36 -16 -49
-27 -47 -39 2 -9 10 -17 18 -18 31 -1 51 -16 45 -35 -5 -14 -2 -17 9 -13 9 3
16 10 16 15 0 5 11 9 25 9 14 0 34 9 46 21 16 16 23 18 35 8 25 -20 17 16 -11
49 -14 17 -25 35 -25 41 0 6 -3 10 -7 10 -5 -1 -18 -4 -30 -6z"/>
<path d="M104 1514 c14 -43 44 -56 66 -29 12 15 11 19 -5 28 -11 7 -25 12 -31
12 -6 0 -19 6 -28 14 -14 12 -15 10 -2 -25z"/>
<path d="M2822 1530 c0 -14 2 -19 5 -12 2 6 2 18 0 25 -3 6 -5 1 -5 -13z"/>
<path d="M4380 1529 c0 -6 -8 -17 -17 -24 -14 -11 -13 -13 14 -17 26 -4 29 -2
25 19 -5 25 -22 42 -22 22z"/>
<path d="M4287 1523 c-14 -13 -6 -33 13 -33 13 0 20 7 20 20 0 19 -20 27 -33
13z"/>
<path d="M2583 1513 c-7 -2 -13 -10 -13 -18 0 -14 70 -29 83 -16 16 16 -44 45
-70 34z"/>
<path d="M2326 1493 c-4 -13 -14 -23 -22 -23 -8 0 -14 -2 -14 -4 0 -11 13 -36
19 -36 10 0 33 59 28 72 -2 8 -7 3 -11 -9z"/>
<path d="M2790 1491 c0 -5 13 -20 30 -34 27 -23 27 -25 10 -30 -11 -3 -20 -11
-20 -17 0 -10 21 -11 86 -7 47 2 87 7 90 10 3 2 -5 21 -17 41 l-21 36 -64 -6
c-45 -5 -64 -3 -64 5 0 6 -7 11 -15 11 -8 0 -15 -4 -15 -9z"/>
<path d="M768 1463 c7 -3 16 -2 19 1 4 3 -2 6 -13 5 -11 0 -14 -3 -6 -6z"/>
<path d="M4502 1448 c5 -15 28 -23 28 -10 0 5 -7 13 -16 16 -10 4 -14 1 -12
-6z"/>
<path d="M423 1440 c-13 -5 -23 -14 -23 -20 0 -5 -14 -10 -30 -10 -36 0 -45
-16 -30 -54 9 -25 14 -27 43 -21 44 10 59 27 63 74 2 23 3 41 1 40 -1 0 -12
-4 -24 -9z"/>
<path d="M2370 1434 c0 -10 33 -33 48 -34 18 0 15 17 -5 24 -10 3 -24 9 -30
12 -7 3 -13 2 -13 -2z"/>
<path d="M4470 1430 c0 -5 5 -10 11 -10 5 0 7 5 4 10 -3 6 -8 10 -11 10 -2 0
-4 -4 -4 -10z"/>
<path d="M5124 1414 c16 -40 22 -36 -104 -63 -106 -23 -131 -33 -124 -50 4 -9
6 -24 6 -33 0 -11 9 -20 26 -25 14 -3 40 -14 57 -24 19 -11 46 -16 73 -14 23
1 45 -2 48 -6 9 -15 81 -10 94 6 10 11 10 15 0 15 -6 0 -10 5 -8 11 5 15 65
35 130 43 64 8 128 26 146 40 10 7 16 6 22 -4 7 -11 12 -11 23 -2 10 9 33 10
71 6 39 -5 60 -3 71 6 11 9 19 10 28 2 7 -7 29 -13 48 -14 29 -3 34 0 32 17
-1 11 4 23 10 28 7 5 -4 6 -25 2 -29 -4 -38 -3 -38 8 0 8 -9 22 -20 32 -18 16
-26 17 -74 6 -30 -7 -67 -23 -83 -36 -15 -14 -35 -25 -44 -25 -9 0 -40 19 -70
43 l-53 42 -125 4 c-117 3 -124 2 -117 -15z m216 -44 c0 -5 -8 -10 -17 -10
-15 0 -16 2 -3 10 19 12 20 12 20 0z"/>
<path d="M1635 1409 c-4 -6 -5 -13 -2 -16 7 -7 27 6 27 18 0 12 -17 12 -25 -2z"/>
<path d="M1017 1404 c-7 -8 17 -34 32 -34 14 0 14 13 -1 28 -13 13 -22 15 -31
6z"/>
<path d="M4213 1358 c34 -34 170 -98 207 -98 16 0 30 -4 30 -10 0 -5 -10 -10
-21 -10 -19 0 -21 -4 -15 -30 5 -25 2 -30 -15 -30 -11 0 -43 -7 -70 -16 -38
-13 -53 -14 -62 -5 -6 6 -23 11 -37 11 -14 0 -31 5 -37 11 -6 6 -22 17 -35 23
-16 8 -23 20 -23 42 0 29 -1 30 -55 32 -30 1 -64 9 -77 17 -12 8 -34 15 -48
15 -20 0 -25 -5 -25 -25 0 -25 -31 -65 -50 -65 -5 0 -10 2 -10 3 0 10 33 67
41 72 5 4 7 11 4 16 -11 17 -41 9 -63 -16 -12 -14 -31 -25 -43 -25 -16 0 -19
-4 -13 -17 19 -45 -4 -105 -47 -118 -24 -8 -59 11 -59 33 0 13 -10 18 -48 19
l-47 3 28 -23 c27 -23 27 -24 8 -41 -18 -16 -18 -19 -3 -55 17 -39 53 -61 99
-61 11 0 30 -9 43 -20 18 -15 27 -17 42 -9 16 9 25 6 44 -12 13 -12 24 -30 24
-38 0 -9 17 -24 40 -34 51 -22 59 -21 53 2 -4 16 3 23 33 36 21 9 45 17 54 18
46 8 119 41 148 66 18 17 48 33 65 37 18 3 41 13 52 20 11 8 32 14 47 14 30 0
51 25 62 73 5 21 12 27 32 27 14 0 37 9 51 20 29 22 53 26 70 9 7 -7 20 -2 44
19 19 16 51 35 71 41 52 17 57 31 11 31 -21 0 -69 7 -108 15 -83 18 -150 19
-208 4 -46 -11 -114 4 -88 20 8 5 -6 11 -38 15 -28 4 -58 9 -67 13 -9 3 -5 -5
9 -19z m-328 -171 c0 -26 -20 -25 -23 2 -3 16 1 22 10 19 7 -3 13 -12 13 -21z
m353 -69 c-5 -14 -65 -58 -79 -58 -18 0 14 59 34 63 41 8 49 7 45 -5z m-368
-6 c0 -13 -12 -22 -22 -16 -10 6 -1 24 13 24 5 0 9 -4 9 -8z"/>
<path d="M5840 1354 c0 -8 5 -12 10 -9 6 4 8 11 5 16 -9 14 -15 11 -15 -7z"/>
<path d="M120 1345 c0 -8 5 -15 10 -15 6 0 10 7 10 15 0 8 -4 15 -10 15 -5 0
-10 -7 -10 -15z"/>
<path d="M715 1351 c-9 -15 8 -35 24 -30 8 3 7 10 -2 23 -10 14 -16 16 -22 7z"/>
<path d="M770 1350 c0 -5 5 -10 10 -10 6 0 10 5 10 10 0 6 -4 10 -10 10 -5 0
-10 -4 -10 -10z"/>
<path d="M440 1304 c0 -13 -7 -15 -36 -10 -19 4 -42 10 -50 13 -10 4 -14 -3
-14 -22 0 -15 4 -24 10 -20 6 3 14 -5 20 -19 6 -16 20 -28 37 -31 15 -4 36 -8
47 -10 26 -5 76 52 76 87 0 26 -2 28 -45 28 -35 0 -45 -4 -45 -16z m65 -4 c3
-5 1 -10 -4 -10 -6 0 -11 5 -11 10 0 6 2 10 4 10 3 0 8 -4 11 -10z"/>
<path d="M3304 1310 c-31 -12 -49 -62 -36 -100 11 -30 59 -79 91 -91 9 -4 34
-4 55 0 28 4 40 11 42 25 1 11 10 23 18 28 22 12 11 107 -16 131 -22 18 -115
23 -154 7z"/>
<path d="M1020 1298 c0 -9 5 -20 11 -23 17 -11 20 0 4 21 -13 17 -14 17 -15 2z"/>
<path d="M2398 1286 c-20 -14 -14 -26 13 -26 17 0 32 23 22 34 -9 9 -16 7 -35
-8z"/>
<path d="M5440 1260 c0 -5 7 -7 15 -4 8 4 15 8 15 10 0 2 -7 4 -15 4 -8 0 -15
-4 -15 -10z"/>
<path d="M2577 1245 c-70 -7 -140 -16 -155 -20 -25 -6 -26 -7 -7 -18 19 -10
67 -14 224 -17 51 -1 77 3 82 12 13 20 11 58 -3 57 -7 -1 -71 -8 -141 -14z"/>
<path d="M5328 1193 c-21 -8 -38 -20 -38 -25 0 -13 61 0 78 17 22 20 0 24 -40
8z"/>
<path d="M1035 1177 c-25 -19 -11 -37 29 -37 40 0 48 7 35 31 -11 22 -38 24
-64 6z"/>
<path d="M555 1160 c-3 -5 -2 -10 4 -10 5 0 13 5 16 10 3 6 2 10 -4 10 -5 0
-13 -4 -16 -10z"/>
<path d="M3548 1113 c7 -3 16 -2 19 1 4 3 -2 6 -13 5 -11 0 -14 -3 -6 -6z"/>
<path d="M4679 1070 c-50 -57 -79 -67 -244 -90 -134 -19 -158 -24 -163 -38 -5
-17 92 -16 127 3 16 8 62 15 105 16 52 2 82 8 94 18 9 9 29 22 45 30 15 8 27
18 27 22 0 4 14 21 30 39 25 27 38 50 27 50 -1 0 -23 -23 -48 -50z"/>
<path d="M2800 1100 c0 -5 5 -10 11 -10 5 0 7 5 4 10 -3 6 -8 10 -11 10 -2 0
-4 -4 -4 -10z"/>
<path d="M2743 1037 c-2 -4 5 -22 16 -41 20 -32 20 -34 3 -50 -22 -19 -35 -20
-76 -5 -29 10 -34 9 -64 -19 -35 -33 -41 -62 -15 -83 15 -13 16 -12 11 9 -6
20 -3 23 20 20 23 -3 27 -8 28 -38 2 -39 33 -70 69 -70 40 0 75 18 85 44 11
29 77 66 118 66 32 0 77 39 55 47 -7 3 -13 15 -13 28 0 54 -16 72 -69 79 -28
4 -53 11 -56 16 -7 11 -104 9 -112 -3z"/>
<path d="M3481 994 c-17 -13 -20 -19 -10 -25 17 -10 49 7 49 26 0 19 -10 19
-39 -1z"/>
<path d="M3606 973 c-23 -17 -52 -27 -78 -29 -22 -1 -43 -6 -47 -12 -3 -6 -19
-16 -35 -21 -24 -10 -32 -8 -58 14 -16 14 -35 25 -42 25 -20 0 -56 -39 -50
-54 3 -8 0 -24 -6 -36 -9 -18 -9 -28 1 -46 16 -30 40 -30 143 0 l79 23 55 -19
c61 -21 82 -17 136 27 26 20 30 31 31 75 1 55 -4 62 -61 73 -23 4 -40 0 -68
-20z"/>
<path d="M846 941 c-4 -7 -5 -15 -2 -18 9 -9 19 4 14 18 -4 11 -6 11 -12 0z"/>
<path d="M4160 890 c0 -5 4 -10 9 -10 6 0 13 5 16 10 3 6 -1 10 -9 10 -9 0
-16 -4 -16 -10z"/>
<path d="M4062 804 c-22 -15 -30 -44 -12 -44 13 0 50 37 50 50 0 14 -12 12
-38 -6z"/>
<path d="M742 801 c2 -7 7 -12 11 -12 12 1 9 15 -3 20 -7 2 -11 -2 -8 -8z"/>
<path d="M3847 793 c-13 -12 -7 -23 13 -23 11 0 20 7 20 15 0 15 -21 21 -33 8z"/>
<path d="M1804 716 c-6 -27 -29 -41 -69 -45 -18 -1 -37 -42 -25 -54 4 -4 19
-3 33 4 21 10 31 8 59 -8 18 -11 39 -18 46 -16 18 7 15 41 -7 72 -12 17 -18
36 -14 49 3 13 1 22 -6 22 -6 0 -13 -11 -17 -24z"/>
<path d="M6465 730 c3 -5 13 -10 21 -10 8 0 12 5 9 10 -3 6 -13 10 -21 10 -8
0 -12 -4 -9 -10z"/>
<path d="M3580 696 c-14 -7 -55 -16 -92 -19 -37 -4 -80 -12 -95 -20 -15 -7
-55 -19 -88 -26 -33 -7 -68 -17 -77 -22 -10 -5 -44 -9 -77 -9 -66 0 -78 -12
-65 -67 15 -63 40 -64 112 -5 37 31 46 34 63 24 29 -18 69 -14 108 11 81 53
138 83 181 96 47 14 70 28 70 42 0 12 -10 11 -40 -5z"/>
</g>
</svg>
